<svg xmlns="http://www.w3.org/2000/svg" xmlns:xlink="http://www.w3.org/1999/xlink" viewBox="0 0 2444.79 2297.35"><defs><style>.cls-1,.cls-9{fill:none;}.cls-2{fill:#fff;}.cls-3{fill:#3f5780;}.cls-4{fill:#ebebeb;}.cls-5{fill:#19d3c5;opacity:0.48;}.cls-6{fill:url(#Neues_Musterfeld_2);}.cls-7{fill:#ffba33;}.cls-8{fill:#e7bdff;}.cls-9{stroke:#af4fed;stroke-miterlimit:10;stroke-width:3px;}.cls-10{fill:#ffad1d;}.cls-11{fill:url(#Neues_Musterfeld_3);}.cls-12,.cls-14{fill:#ff336d;}.cls-12,.cls-13{opacity:0.4;}</style><pattern id="Neues_Musterfeld_2" data-name="Neues Musterfeld 2" width="1581.73" height="1599.61" patternUnits="userSpaceOnUse" viewBox="0 0 1581.73 1599.61"><rect class="cls-1" width="1581.73" height="1599.61"/><path class="cls-2" d="M624.34,1408.21a5.73,5.73,0,0,1-5.15-3.19A45,45,0,1,1,699.88,1365a5.74,5.74,0,0,1-10.29,5.11,33.55,33.55,0,1,0-60.11,29.84,5.74,5.74,0,0,1-2.6,7.7A5.67,5.67,0,0,1,624.34,1408.21Z"/><path class="cls-2" d="M505.81,738.9a19.28,19.28,0,0,1-14.32-6.33,5.74,5.74,0,0,1,8.51-7.72,7.84,7.84,0,0,0,11.61-10.53,5.74,5.74,0,1,1,8.51-7.72,19.31,19.31,0,0,1-14.31,32.3Z"/><path class="cls-2" d="M315.49,1443.17a5.76,5.76,0,0,1-4.68-2.41,19.32,19.32,0,0,1,31.43-22.49,5.74,5.74,0,0,1-9.34,6.69,7.86,7.86,0,0,0-10.94-1.81,7.85,7.85,0,0,0-1.81,10.93,5.75,5.75,0,0,1-4.66,9.09Z"/><path class="cls-2" d="M933,1088.56a5.75,5.75,0,0,1-.38-11.48,19.52,19.52,0,1,0-2.56-38.95,5.75,5.75,0,0,1-.75-11.47,31,31,0,0,1,4.07,61.88Z"/><path class="cls-2" d="M1432.73,940.56a5.74,5.74,0,0,1-1-11.39,7.4,7.4,0,0,0,5.9-8.61,7.38,7.38,0,0,0-8.61-5.9,5.75,5.75,0,0,1-2.1-11.3,18.87,18.87,0,1,1,6.91,37.1A5.44,5.44,0,0,1,1432.73,940.56Z"/><path class="cls-2" d="M1563.23,700.38a19.07,19.07,0,0,1-2-.11,5.75,5.75,0,0,1,1.29-11.42,6,6,0,1,0,1.36-11.94,5.75,5.75,0,0,1,1.29-11.42,17.5,17.5,0,0,1-2,34.89Z"/><path class="cls-2" d="M1161.9,44.19a23.75,23.75,0,0,1-23.13-18.7A5.75,5.75,0,0,1,1150,23.05a12.23,12.23,0,1,0,23.91-5.19,5.75,5.75,0,1,1,11.23-2.44,23.77,23.77,0,0,1-23.24,28.77Z"/><path class="cls-2" d="M840.14,820.91c-.39,0-.77,0-1.15,0a5.75,5.75,0,1,1,.7-11.47,7,7,0,1,0,.85-13.89,5.75,5.75,0,0,1,.7-11.47,18.45,18.45,0,0,1-1.1,36.87Z"/><path class="cls-2" d="M246.52,904.94a5.77,5.77,0,0,1-5.64-6.89,25,25,0,0,0-49-9.9,5.74,5.74,0,0,1-11.26-2.28,36.5,36.5,0,1,1,71.55,14.46A5.75,5.75,0,0,1,246.52,904.94Z"/><path class="cls-2" d="M665.84,138.52a50.6,50.6,0,0,1-5.35-.28,5.75,5.75,0,0,1,1.19-11.43,39.41,39.41,0,1,0,8.12-78.4,5.75,5.75,0,0,1-5.12-6.31A5.69,5.69,0,0,1,671,37a50.91,50.91,0,0,1-5.14,101.54Z"/><path class="cls-2" d="M1461.65,604.18a5.74,5.74,0,0,1-3.21-10.51,7.52,7.52,0,1,0-8.4-12.47,5.75,5.75,0,0,1-6.42-9.54,19,19,0,1,1,21.23,31.54A5.73,5.73,0,0,1,1461.65,604.18Z"/><path class="cls-2" d="M638.28,660.87H638a5.77,5.77,0,0,1-5.47-6,2.11,2.11,0,0,0-2-2.2,2,2,0,0,0-2.21,2,5.71,5.71,0,0,1-6,5.47,5.77,5.77,0,0,1-5.47-6,13.69,13.69,0,0,1,14.23-12.94A13.6,13.6,0,0,1,644,655.4,5.73,5.73,0,0,1,638.28,660.87Z"/><path class="cls-2" d="M1403.13,357.36a15.89,15.89,0,0,1-1.77-31.69,5.74,5.74,0,1,1,1.29,11.41,4.41,4.41,0,1,0,1,8.76,5.75,5.75,0,1,1,1.28,11.42A15.34,15.34,0,0,1,1403.13,357.36Z"/><path class="cls-2" d="M423.73,1073.09a14.9,14.9,0,0,1-12.64-22.73,5.75,5.75,0,1,1,9.77,6.05,3.36,3.36,0,0,0-.42,2.57,3.4,3.4,0,0,0,6.21,1,5.75,5.75,0,0,1,9.77,6.06A14.92,14.92,0,0,1,423.73,1073.09Z"/><path class="cls-2" d="M1463.7,715.21a7.11,7.11,0,0,1-.91-.07A13.76,13.76,0,0,1,1467.1,688a5.75,5.75,0,1,1-1.8,11.35,2.27,2.27,0,0,0-.71,4.48,5.75,5.75,0,0,1-.89,11.42Z"/><path class="cls-2" d="M1029.45,873a34.59,34.59,0,0,1-20.34-6.59,5.74,5.74,0,1,1,6.72-9.31,23.33,23.33,0,1,0,27.33-37.83,5.74,5.74,0,0,1,6.73-9.31,34.82,34.82,0,0,1-20.44,63Z"/><path class="cls-2" d="M819.13,1078.47a5.74,5.74,0,0,1-2.47-10.93A16.91,16.91,0,1,0,802.17,1037a5.74,5.74,0,1,1-4.92-10.38,28.4,28.4,0,1,1,24.33,51.32A5.64,5.64,0,0,1,819.13,1078.47Z"/><path class="cls-2" d="M1056.2,653.8a24.56,24.56,0,0,1-4.5-.42,5.74,5.74,0,0,1,2.12-11.29,12.65,12.65,0,0,0,4.65-24.87,5.74,5.74,0,1,1,2.12-11.29,24.14,24.14,0,0,1-4.39,47.87Z"/><path class="cls-2" d="M553.24,87.22a43.26,43.26,0,0,1-31.41-13.43,5.75,5.75,0,0,1,8.33-7.93,31.87,31.87,0,1,0,46.14-44A5.75,5.75,0,1,1,584.62,14a43.34,43.34,0,0,1-31.38,73.26Z"/><path class="cls-2" d="M727.62,807.44a5.72,5.72,0,0,1-4.24-1.86,16.77,16.77,0,0,1,24.72-22.66,5.75,5.75,0,0,1-8.47,7.77,5.28,5.28,0,0,0-7.46-.33,5.28,5.28,0,0,0-.32,7.45,5.74,5.74,0,0,1-4.23,9.63Z"/><path class="cls-2" d="M1255.72,84.63a17.54,17.54,0,0,1-8.5-2.2,5.74,5.74,0,1,1,5.54-10.06,6.18,6.18,0,0,0,8.39-2.43,6.18,6.18,0,0,0-2.43-8.39,5.75,5.75,0,1,1,5.55-10.07,17.68,17.68,0,0,1-3.61,32.45A17.81,17.81,0,0,1,1255.72,84.63Z"/><path class="cls-2" d="M1405.84,1462.11a5.75,5.75,0,0,1-5.74-5.57,28.73,28.73,0,0,1,57.44-1.75,5.74,5.74,0,1,1-11.48.35,17.25,17.25,0,0,0-29.8-11.29,17.13,17.13,0,0,0-4.67,12.34,5.74,5.74,0,0,1-5.57,5.91Z"/><path class="cls-2" d="M1203.56,1267.85a5.74,5.74,0,0,1-5-8.59,7.38,7.38,0,0,0-12.82-7.3,5.74,5.74,0,0,1-10-5.69,18.86,18.86,0,1,1,32.78,18.68A5.74,5.74,0,0,1,1203.56,1267.85Z"/><path class="cls-2" d="M466,1354.36a51.3,51.3,0,0,1-46.74-72.26,5.75,5.75,0,0,1,10.49,4.69,39.81,39.81,0,0,0,72.67,32.54,5.74,5.74,0,1,1,10.48,4.7A51.39,51.39,0,0,1,466,1354.36Z"/><path class="cls-2" d="M1360.3,87.57a5.74,5.74,0,0,1-1.41-11.31A18.08,18.08,0,1,0,1350,41.21a5.75,5.75,0,1,1-2.82-11.14,29.57,29.57,0,0,1,14.52,57.33A5.8,5.8,0,0,1,1360.3,87.57Z"/><path class="cls-2" d="M1415,246.34a5.73,5.73,0,0,1-5.61-4.52,19.74,19.74,0,0,1,38.59-8.38,5.75,5.75,0,0,1-11.23,2.44,8.25,8.25,0,1,0-16.13,3.5,5.75,5.75,0,0,1-5.62,7Z"/><path class="cls-2" d="M720.66,1260a5.73,5.73,0,0,1-5-3,46.16,46.16,0,0,1,80.87-44.55,5.74,5.74,0,1,1-10.06,5.54,34.68,34.68,0,0,0-60.75,33.47,5.74,5.74,0,0,1-5,8.51Z"/><path class="cls-2" d="M26.25,1244.78A16.67,16.67,0,0,1,10.34,1233a5.74,5.74,0,1,1,11-3.38,5.15,5.15,0,1,0,9.85-3,5.74,5.74,0,0,1,11-3.37,16.65,16.65,0,0,1-15.9,21.54Z"/><path class="cls-2" d="M1136.05,156.83a30.7,30.7,0,0,1-25.71-47.4,5.74,5.74,0,1,1,9.64,6.25,19.21,19.21,0,0,0,32.24,20.91,5.74,5.74,0,1,1,9.64,6.25A30.71,30.71,0,0,1,1136.05,156.83Z"/><path class="cls-2" d="M1537,1258.84a31.27,31.27,0,0,1-17-5,5.75,5.75,0,1,1,6.21-9.67,20,20,0,1,0,21.63-33.66,5.75,5.75,0,1,1,6.21-9.67,31.49,31.49,0,0,1-17.08,58Z"/><path class="cls-2" d="M946.08,605.15a15,15,0,0,1-2.9-.28,5.75,5.75,0,1,1,2.21-11.28,3.44,3.44,0,0,0,4-2.71,3.45,3.45,0,0,0-2.71-4,5.75,5.75,0,0,1,2.21-11.28,14.93,14.93,0,0,1-2.84,29.58Z"/><path class="cls-2" d="M810.34,175.61a5.74,5.74,0,0,1-4.92-2.76,15.2,15.2,0,0,1,26-15.79,5.75,5.75,0,0,1-9.82,6,3.71,3.71,0,1,0-6.34,3.85,5.75,5.75,0,0,1-1.92,7.9A5.82,5.82,0,0,1,810.34,175.61Z"/><path class="cls-2" d="M481.44,637.13a30.42,30.42,0,0,1-25.83-46.43,5.74,5.74,0,1,1,9.77,6,18.94,18.94,0,1,0,32.21,19.93,5.75,5.75,0,0,1,9.78,6.05A30.45,30.45,0,0,1,481.44,637.13Z"/><path class="cls-2" d="M1283.42,1476.25a5.63,5.63,0,0,1-3.17-1,5.75,5.75,0,0,1-1.61-8,6.66,6.66,0,1,0-11.1-7.37,5.75,5.75,0,1,1-9.57-6.36,18.16,18.16,0,0,1,30.25,20.09A5.77,5.77,0,0,1,1283.42,1476.25Z"/><path class="cls-2" d="M637.57,805.78a5.75,5.75,0,0,1-1.15-11.38,7.39,7.39,0,1,0-3-14.49,5.75,5.75,0,1,1-2.3-11.26,18.89,18.89,0,1,1,7.56,37A5.62,5.62,0,0,1,637.57,805.78Z"/><path class="cls-2" d="M532.53,1494.78a5.75,5.75,0,0,1-1.71-11.23,24.1,24.1,0,1,0-14.37-46,5.75,5.75,0,0,1-3.43-11,35.59,35.59,0,0,1,21.23,67.94A6,6,0,0,1,532.53,1494.78Z"/><path class="cls-2" d="M20.65,649.34a14.85,14.85,0,0,1-13-7.65,5.75,5.75,0,0,1,10.05-5.57,3.28,3.28,0,0,0,2,1.59,3.24,3.24,0,0,0,2.53-.29,3.33,3.33,0,0,0,1.31-4.53,5.75,5.75,0,0,1,10.05-5.58,14.85,14.85,0,0,1-13,22Z"/><path class="cls-2" d="M730.49,955.27a33.38,33.38,0,0,1-6.72-.68,33.22,33.22,0,0,1-25.89-39.2,5.75,5.75,0,1,1,11.26,2.3,21.72,21.72,0,1,0,42.57,8.7,5.75,5.75,0,1,1,11.26,2.3,33.25,33.25,0,0,1-32.48,26.58Z"/><path class="cls-2" d="M1494.88,446.23a48.9,48.9,0,0,1-19.23-4,5.75,5.75,0,1,1,4.53-10.57,37.57,37.57,0,1,0,29.55-69.08,5.74,5.74,0,0,1,4.52-10.56,49.06,49.06,0,0,1-19.37,94.16Z"/><path class="cls-2" d="M1349,638.94a13.93,13.93,0,0,1-3.77-.52,5.75,5.75,0,1,1,3.14-11.06,2.25,2.25,0,0,0,1.69-.19,2.21,2.21,0,0,0,1.06-1.35,2.22,2.22,0,0,0-1.53-2.75,5.74,5.74,0,1,1,3.14-11.05,13.72,13.72,0,0,1-3.73,26.92Z"/><path class="cls-2" d="M776.62,1599.61a24.85,24.85,0,0,1-24.83-24.34,5.74,5.74,0,0,1,5.62-5.86,6,6,0,0,1,5.87,5.62,13.25,13.25,0,0,0,4.11,9.37,13.48,13.48,0,0,0,9.52,3.71A13.34,13.34,0,0,0,790,1574.48a5.75,5.75,0,1,1,11.49-.24,24.84,24.84,0,0,1-24.33,25.36Z"/><path class="cls-2" d="M22.39,887.23a14.41,14.41,0,0,1-8.87-25.78,5.75,5.75,0,0,1,7.06,9.07,2.92,2.92,0,1,0,3.59,4.61,5.75,5.75,0,0,1,7.06,9.07A14.39,14.39,0,0,1,22.39,887.23Z"/><path class="cls-2" d="M1245.2,673.61a5.51,5.51,0,0,1-1.06-.1A29.76,29.76,0,0,1,1255,615a5.75,5.75,0,0,1-2.09,11.3,18.28,18.28,0,0,0-6.65,35.94,5.74,5.74,0,0,1-1,11.39Z"/><path class="cls-2" d="M387.24,853.91a35.63,35.63,0,0,1-27-12.27,5.75,5.75,0,1,1,8.68-7.53,24.18,24.18,0,1,0,36.51-31.7,5.74,5.74,0,1,1,8.68-7.52,35.64,35.64,0,0,1-26.91,59Z"/><path class="cls-2" d="M93.09,403.54a36.93,36.93,0,0,1-27.42-12.11,5.74,5.74,0,0,1,8.5-7.73A25.54,25.54,0,1,0,112,349.35a5.74,5.74,0,1,1,8.5-7.73,37,37,0,0,1-27.38,61.92Z"/><path class="cls-2" d="M480.24,34.52a17.41,17.41,0,0,1-1.9-.1,17.14,17.14,0,0,1-15.13-18.91,5.75,5.75,0,1,1,11.42,1.27A5.63,5.63,0,0,0,485.82,18a5.75,5.75,0,1,1,11.42,1.27A17.14,17.14,0,0,1,480.24,34.52Z"/><path class="cls-2" d="M307.16,1574.32c-.72,0-1.45,0-2.18-.1a5.75,5.75,0,1,1,1.08-11.44,11.65,11.65,0,1,0,2.16-23.19,5.74,5.74,0,0,1,1.07-11.44,23.13,23.13,0,0,1-2.13,46.17Z"/><path class="cls-2" d="M1544,1574.64a15.29,15.29,0,0,1-13.39-8,5.74,5.74,0,1,1,10.12-5.43,3.69,3.69,0,1,0,6.5-3.5,5.75,5.75,0,0,1,10.12-5.45,15.2,15.2,0,0,1-13.35,22.39Z"/><path class="cls-2" d="M1435.91,1234.4a5.76,5.76,0,0,1-2-.37,36.36,36.36,0,0,1,25.57-68.07,5.75,5.75,0,1,1-4,10.76,24.86,24.86,0,0,0-17.49,46.55,5.75,5.75,0,0,1-2,11.13Z"/><path class="cls-2" d="M376.5,1211.72a5.73,5.73,0,0,1-4.56-2.26,21,21,0,1,1,33.34-25.5,5.75,5.75,0,0,1-9.13,7,9.5,9.5,0,0,0-15.09,11.54,5.75,5.75,0,0,1-4.56,9.24Z"/><path class="cls-2" d="M1240.45,1103a5.74,5.74,0,0,1-2.43-11,2.54,2.54,0,0,0-2.14-4.61A5.75,5.75,0,0,1,1231,1077a14,14,0,0,1,11.84,25.44A5.64,5.64,0,0,1,1240.45,1103Z"/><path class="cls-2" d="M117,949.73a15.93,15.93,0,0,1-10.38-28,5.75,5.75,0,0,1,7.48,8.73,4.44,4.44,0,0,0,5.78,6.75,5.75,5.75,0,1,1,7.48,8.73A15.92,15.92,0,0,1,117,949.73Z"/><path class="cls-2" d="M1561.65,271.69c-.21,0-.41,0-.62,0a15.52,15.52,0,0,1,3.27-30.87,5.75,5.75,0,0,1-1.2,11.43,4,4,0,1,0-.85,8,5.75,5.75,0,0,1-.6,11.46Z"/><path class="cls-2" d="M226.24,70.05a5.8,5.8,0,0,1-2.11-.4,18.93,18.93,0,1,1,13.94-35.2,5.74,5.74,0,1,1-4.23,10.68A7.44,7.44,0,1,0,228.36,59a5.75,5.75,0,0,1-2.12,11.09Z"/><path class="cls-2" d="M283.81,376a5.75,5.75,0,0,1-3.47-10.34,29,29,0,1,0-35-46.38,5.74,5.74,0,0,1-6.91-9.17,40.53,40.53,0,1,1,48.8,64.73A5.71,5.71,0,0,1,283.81,376Z"/><path class="cls-2" d="M1562.57,572.22a5.07,5.07,0,0,1-.86-.07,27.28,27.28,0,0,1,8.1-54,5.74,5.74,0,1,1-1.7,11.36,15.8,15.8,0,1,0-4.69,31.24,5.75,5.75,0,0,1-.85,11.43Z"/><path class="cls-2" d="M1431.36,1584.43a5.76,5.76,0,0,1-5.51-7.38,12.71,12.71,0,0,0-24.38-7.22,5.75,5.75,0,0,1-11-3.27,24.21,24.21,0,0,1,46.42,13.75A5.75,5.75,0,0,1,1431.36,1584.43Z"/><path class="cls-2" d="M822.59,1333a5.75,5.75,0,0,1-5.22-3.34,24.17,24.17,0,0,1,43.92-20.19,5.75,5.75,0,0,1-10.44,4.8,12.68,12.68,0,0,0-23,10.59,5.75,5.75,0,0,1-2.82,7.62A5.87,5.87,0,0,1,822.59,1333Z"/><path class="cls-2" d="M100.82,794.84a5.74,5.74,0,0,1-4.58-9.21A32.06,32.06,0,1,0,45.09,747a5.75,5.75,0,1,1-9.17-6.93,43.55,43.55,0,1,1,69.49,52.51A5.75,5.75,0,0,1,100.82,794.84Z"/><path class="cls-2" d="M1121.65,388.89a30.35,30.35,0,0,1-6-.6A30,30,0,0,1,1092.26,353a5.74,5.74,0,1,1,11.26,2.28,18.49,18.49,0,1,0,36.24,7.33,5.74,5.74,0,1,1,11.26,2.28A30,30,0,0,1,1121.65,388.89Z"/><path class="cls-2" d="M551.42,1144.13a6,6,0,0,1-1.51-.2,5.74,5.74,0,0,1-4-7,22.7,22.7,0,1,0-43.8-11.91,5.75,5.75,0,1,1-11.09-3,34.19,34.19,0,1,1,66,17.93A5.75,5.75,0,0,1,551.42,1144.13Z"/><path class="cls-2" d="M1529.2,37.5a30.72,30.72,0,0,1-21.15-8.38,30.74,30.74,0,0,1-9.75-21.58,5.74,5.74,0,1,1,11.48-.37,19.33,19.33,0,0,0,6.14,13.57A19.21,19.21,0,0,0,1529.85,26a19.47,19.47,0,0,0,18.83-20.07,5.74,5.74,0,0,1,11.48-.36,30.7,30.7,0,0,1-8.36,22.16,30.72,30.72,0,0,1-21.58,9.75C1529.88,37.5,1529.54,37.5,1529.2,37.5Z"/><path class="cls-2" d="M835.09,320.3a5.74,5.74,0,0,1-5.73-5.33,47,47,0,0,1,93.75-6.77,5.75,5.75,0,1,1-11.46.83,35.5,35.5,0,1,0-70.82,5.11,5.76,5.76,0,0,1-5.32,6.15Z"/><path class="cls-2" d="M404.54,982.7a35.71,35.71,0,0,1-33.7-24.16,5.75,5.75,0,0,1,10.88-3.71,24.14,24.14,0,1,0,45.7-15.55,5.75,5.75,0,1,1,10.88-3.71,35.68,35.68,0,0,1-33.76,47.13Z"/><path class="cls-2" d="M444.34,1593.9a5.75,5.75,0,0,1-5.74-5.51,35.11,35.11,0,0,1,33.62-36.46,35.08,35.08,0,0,1,36.46,33.62,5.74,5.74,0,0,1-5.51,6,5.68,5.68,0,0,1-6-5.51,23.58,23.58,0,0,0-47.12,1.92,5.74,5.74,0,0,1-5.51,6Z"/><path class="cls-2" d="M1041,994.32a5.74,5.74,0,0,1-3.19-10.52,4.37,4.37,0,0,0-1.56-7.91,4.45,4.45,0,0,0-3.27.65,5.74,5.74,0,1,1-6.37-9.56,15.85,15.85,0,1,1,17.57,26.38A5.72,5.72,0,0,1,1041,994.32Z"/><path class="cls-2" d="M946.33,760.68a5.74,5.74,0,0,1-2.76-10.78,22.86,22.86,0,0,0-22-40.1,5.75,5.75,0,1,1-5.52-10.08,34.35,34.35,0,0,1,33,60.26A5.75,5.75,0,0,1,946.33,760.68Z"/><path class="cls-2" d="M1307.6,978.56a5.88,5.88,0,0,1-2.16-.42,43.85,43.85,0,0,1,33-81.26,5.75,5.75,0,0,1-4.32,10.65,32.35,32.35,0,0,0-24.33,60,5.74,5.74,0,0,1-2.16,11.07Z"/><path class="cls-2" d="M1268,811.92a5.75,5.75,0,0,1-5.15-8.29,14.44,14.44,0,1,0-25.9-12.77,5.75,5.75,0,0,1-10.31-5.09,25.94,25.94,0,1,1,46.52,23A5.76,5.76,0,0,1,1268,811.92Z"/><path class="cls-2" d="M192.68,500.82a39.2,39.2,0,0,1-18.55-4.68A5.74,5.74,0,0,1,179.55,486a28,28,0,1,0,26.36-49.32,5.75,5.75,0,0,1,5.42-10.14,39.48,39.48,0,0,1-18.65,74.27Z"/><path class="cls-2" d="M640.44,1107.41a5.75,5.75,0,0,1-5.68-4.89,42.31,42.31,0,0,1,83.67-12.64,5.74,5.74,0,1,1-11.36,1.72,30.82,30.82,0,1,0-60.94,9.21,5.75,5.75,0,0,1-4.83,6.54A6.33,6.33,0,0,1,640.44,1107.41Z"/><path class="cls-2" d="M616.2,227.24a20.05,20.05,0,0,1-18.31-28.15,5.74,5.74,0,1,1,10.51,4.64,8.56,8.56,0,1,0,15.66,6.92,5.74,5.74,0,0,1,10.51,4.64A20.06,20.06,0,0,1,616.2,227.24Z"/><path class="cls-2" d="M735.35,591.83A39.17,39.17,0,0,1,735,513.5h.05a5.75,5.75,0,0,1,0,11.49A27.68,27.68,0,0,0,716,572.4a28.06,28.06,0,0,0,19.64,7.94h0a5.75,5.75,0,0,1,0,11.49Z"/><path class="cls-2" d="M1408.85,1101.11a5.88,5.88,0,0,1-1.79-.29,5.75,5.75,0,0,1-3.67-7.25,36.16,36.16,0,0,0-68.71-22.56,5.74,5.74,0,1,1-10.91-3.58,47.65,47.65,0,1,1,90.54,29.72A5.75,5.75,0,0,1,1408.85,1101.11Z"/><path class="cls-2" d="M20.59,523a5.74,5.74,0,0,1-.54-11.46A15.32,15.32,0,1,0,17.14,481,5.75,5.75,0,0,1,16,469.57,26.81,26.81,0,0,1,21.15,523,5.24,5.24,0,0,1,20.59,523Z"/><path class="cls-2" d="M992.67,377.46a16.84,16.84,0,0,1-2.55-.19,16.23,16.23,0,0,1-7-29.16,5.74,5.74,0,1,1,6.77,9.28,4.75,4.75,0,1,0,5.59,7.67,5.75,5.75,0,1,1,6.77,9.29A16.16,16.16,0,0,1,992.67,377.46Z"/><path class="cls-2" d="M587.62,542.85a40.2,40.2,0,0,1-38.07-53,5.74,5.74,0,0,1,10.89,3.66,28.71,28.71,0,1,0,54.42,18.31,5.75,5.75,0,0,1,10.89,3.67A40.27,40.27,0,0,1,587.62,542.85Z"/><path class="cls-2" d="M894.56,952.66a32.34,32.34,0,0,1-26.8-14.24,5.75,5.75,0,0,1,9.53-6.42,20.73,20.73,0,1,0,34.39-23.15,5.74,5.74,0,1,1,9.53-6.41,32.23,32.23,0,0,1-26.65,50.22Z"/><path class="cls-2" d="M45.13,110.31A40.82,40.82,0,0,1,41,28.88,5.74,5.74,0,1,1,42.19,40.3a29.33,29.33,0,0,0,6,58.36,5.75,5.75,0,0,1,1.18,11.43A40.8,40.8,0,0,1,45.13,110.31Z"/><path class="cls-2" d="M287.32,1303.17a18.3,18.3,0,0,1-2.84-.22,5.74,5.74,0,0,1,1.72-11.36,7.41,7.41,0,0,0,8.43-6.22,7.41,7.41,0,0,0-6.21-8.43,5.74,5.74,0,0,1,1.72-11.36,18.9,18.9,0,0,1-2.82,37.59Z"/><path class="cls-2" d="M1346.3,1379.31a47.81,47.81,0,0,1-45-31.77,5.75,5.75,0,1,1,10.83-3.84,36.23,36.23,0,1,0,68.29-24.21,5.75,5.75,0,0,1,10.83-3.85,47.71,47.71,0,0,1-44.93,63.67Z"/><path class="cls-2" d="M1010.1,516.22a5.7,5.7,0,0,1-3.82-1.46,29.23,29.23,0,1,1,39-43.59,5.75,5.75,0,0,1-7.66,8.57,17.74,17.74,0,1,0-23.64,26.45,5.74,5.74,0,0,1-3.83,10Z"/><path class="cls-2" d="M1568.88,813.85a5.72,5.72,0,0,1-2.37-.51,14.33,14.33,0,0,1,11.86-26.09,5.75,5.75,0,1,1-4.76,10.46,2.84,2.84,0,0,0-2.35,5.17,5.74,5.74,0,0,1-2.38,11Z"/><path class="cls-2" d="M221.73,240.76a5.74,5.74,0,0,1-5.63-4.62,51.09,51.09,0,0,1,100.21-20A5.75,5.75,0,0,1,305,218.41a39.6,39.6,0,1,0-77.68,15.48,5.73,5.73,0,0,1-4.51,6.76A6.16,6.16,0,0,1,221.73,240.76Z"/><path class="cls-2" d="M786.26,1391.72a5.76,5.76,0,0,1-5.16-3.2A13.34,13.34,0,0,1,797.34,1370a13.23,13.23,0,0,1,7.68,6.72,5.74,5.74,0,1,1-10.29,5.1,1.86,1.86,0,0,0-3.33,1.64,5.74,5.74,0,0,1-2.6,7.7A5.67,5.67,0,0,1,786.26,1391.72Z"/><path class="cls-2" d="M673.26,426.72a5.74,5.74,0,0,1-5-8.61,2.58,2.58,0,0,0-2.9-3.76,2.59,2.59,0,0,0-1.55,1.2,5.75,5.75,0,0,1-10-5.73,14.06,14.06,0,1,1,24.37,14A5.75,5.75,0,0,1,673.26,426.72Z"/><path class="cls-2" d="M1160.3,916.35a5.74,5.74,0,0,1-1-11.4,13.9,13.9,0,0,0-4.83-27.37,5.74,5.74,0,1,1-2-11.31,25.38,25.38,0,1,1,8.82,50A5.72,5.72,0,0,1,1160.3,916.35Z"/><path class="cls-2" d="M1515.24,149.91c-1.46,0-2.92-.07-4.4-.21a46.74,46.74,0,0,1-42.12-50.84,5.74,5.74,0,0,1,11.44,1.07,35.19,35.19,0,1,0,70.08,6.58,5.74,5.74,0,0,1,11.44,1.07A46.75,46.75,0,0,1,1515.24,149.91Z"/><path class="cls-2" d="M892.52,84.17c-.88,0-1.76,0-2.65-.11a5.75,5.75,0,0,1-5.25-6.2,5.69,5.69,0,0,1,6.2-5.25,20.33,20.33,0,1,0,3.35-40.52,5.74,5.74,0,1,1,1-11.45,31.82,31.82,0,0,1-2.6,63.53Z"/><path class="cls-2" d="M996.35,1318.42h-.77a38.42,38.42,0,0,1-27.14-11.86,5.75,5.75,0,1,1,8.28-8,27.21,27.21,0,0,0,39.22-37.72,5.74,5.74,0,1,1,8.28-8,38.7,38.7,0,0,1-27.87,65.52Z"/><path class="cls-2" d="M799,705.24a30.76,30.76,0,0,1-29-20.7,5.74,5.74,0,0,1,10.86-3.74,19.2,19.2,0,0,0,36.31-12.51A5.74,5.74,0,1,1,828,664.54a30.71,30.71,0,0,1-29,40.7Z"/><path class="cls-2" d="M1157.74,1023.79a15.53,15.53,0,0,1-15.47-14.52,5.75,5.75,0,0,1,11.47-.74,4,4,0,0,0,8-.52,5.75,5.75,0,1,1,11.47-.73,15.56,15.56,0,0,1-14.49,16.48Z"/><path class="cls-2" d="M277.08,1128.73a48.11,48.11,0,0,1-45-31.29,5.75,5.75,0,0,1,10.77-4,36.54,36.54,0,1,0,68.49-25.51,5.74,5.74,0,1,1,10.76-4,48.1,48.1,0,0,1-45,64.82Z"/><path class="cls-2" d="M643.71,1570.36a30.68,30.68,0,0,1-6.08-.62,29.89,29.89,0,0,1-10.43-54.23,5.75,5.75,0,1,1,6.32,9.6,18.39,18.39,0,0,0,20.25,30.71,5.74,5.74,0,1,1,6.32,9.59A29.65,29.65,0,0,1,643.71,1570.36Z"/><path class="cls-2" d="M260.46,772.52A39.47,39.47,0,0,1,249.67,771a39,39,0,0,1-23.58-18.66,5.75,5.75,0,0,1,10-5.6,27.8,27.8,0,1,0,48.55-27.08,5.74,5.74,0,0,1,10-5.59,39.33,39.33,0,0,1-34.25,58.44Z"/><path class="cls-2" d="M1311.44,1223.62h-.08a28,28,0,1,1,.78-56.07,5.75,5.75,0,0,1-.08,11.49h-.31a16.55,16.55,0,0,0-.23,33.09,5.75,5.75,0,0,1-.08,11.49Z"/><path class="cls-2" d="M1354.91,779.23a5.75,5.75,0,0,1-.91-11.42,16.85,16.85,0,0,0-5.42-33.26,5.74,5.74,0,0,1-1.85-11.34,28.34,28.34,0,1,1,9.11,55.94A4.87,4.87,0,0,1,1354.91,779.23Z"/><path class="cls-2" d="M1303.76,1580.86a5.75,5.75,0,0,1-2.88-10.72,6.16,6.16,0,1,0-6.16-10.67,5.75,5.75,0,0,1-5.76-10,17.65,17.65,0,1,1,17.67,30.57A5.62,5.62,0,0,1,1303.76,1580.86Z"/><path class="cls-2" d="M1319,533.48a5.75,5.75,0,0,1,0-11.49,41,41,0,0,0,28.36-70.35,39.92,39.92,0,0,0-29.14-11.75h-.05a5.75,5.75,0,0,1,0-11.49,52.54,52.54,0,0,1,1,105.08Z"/><path class="cls-2" d="M1048.17,1445.36a24.11,24.11,0,0,1-23.87-21.29,24.11,24.11,0,0,1,21.12-26.73,5.74,5.74,0,0,1,1.34,11.41,12.6,12.6,0,0,0-6.35,22.4,12.46,12.46,0,0,0,9.27,2.63,5.74,5.74,0,1,1,1.34,11.41A24.77,24.77,0,0,1,1048.17,1445.36Z"/><path class="cls-2" d="M1263.08,376.84a5.75,5.75,0,0,1-4.61-2.31,26.14,26.14,0,1,1,41.88-31.28,5.74,5.74,0,1,1-9.2,6.87,14.65,14.65,0,1,0-23.47,17.54,5.74,5.74,0,0,1-4.6,9.18Z"/><path class="cls-2" d="M1140.83,274.65A42.85,42.85,0,0,1,1103,252a5.75,5.75,0,0,1,10.15-5.41,31.31,31.31,0,1,0,55.28-29.43,5.74,5.74,0,0,1,10.14-5.4,42.8,42.8,0,0,1-37.71,62.92Z"/><path class="cls-2" d="M167.25,625.28l-1.19,0a33.9,33.9,0,0,1-22-58.65,5.75,5.75,0,0,1,7.84,8.4,22.4,22.4,0,0,0,30.57,32.75,5.75,5.75,0,1,1,7.85,8.4A33.69,33.69,0,0,1,167.25,625.28Z"/><path class="cls-2" d="M423.19,1498.94a5.66,5.66,0,0,1-3.25-1,22.16,22.16,0,0,1,8.57-40,22,22,0,0,1,16.58,3.55,5.74,5.74,0,1,1-6.52,9.46,10.67,10.67,0,1,0-12.11,17.58,5.74,5.74,0,0,1-3.27,10.47Z"/><path class="cls-2" d="M248.48,1014.19a22.84,22.84,0,0,1-22.61-26.13,5.75,5.75,0,1,1,11.37,1.67A11.31,11.31,0,1,0,259.62,993,5.75,5.75,0,1,1,271,994.71a22.81,22.81,0,0,1-22.51,19.48Z"/><path class="cls-2" d="M1547.34,1471.9a5.74,5.74,0,0,1-5.67-4.87,19.49,19.49,0,1,1,38.53-5.91,5.75,5.75,0,0,1-11.36,1.74,8,8,0,0,0-15.81,2.43,5.75,5.75,0,0,1-4.81,6.55A6.51,6.51,0,0,1,1547.34,1471.9Z"/><path class="cls-2" d="M714.4,342.72a5.75,5.75,0,0,1-1.94-11.16,37.18,37.18,0,0,0-25.07-70,5.75,5.75,0,1,1-3.87-10.82,48.67,48.67,0,1,1,32.81,91.65A5.69,5.69,0,0,1,714.4,342.72Z"/><path class="cls-2" d="M898.56,1432.51a29.07,29.07,0,0,1-13.63-3.38,5.74,5.74,0,0,1,5.36-10.16,17.81,17.81,0,1,0,16.63-31.51,5.75,5.75,0,1,1,5.37-10.16,29.3,29.3,0,0,1-13.73,55.21Z"/><path class="cls-2" d="M1551.24,1119.27a5.74,5.74,0,0,1-3.92-9.94,39.27,39.27,0,0,0-53.64-57.36,5.74,5.74,0,0,1-7.85-8.39,50.76,50.76,0,0,1,69.34,74.14A5.72,5.72,0,0,1,1551.24,1119.27Z"/><path class="cls-2" d="M41.16,1561.79a42,42,0,0,1-38.53-25.27A5.74,5.74,0,1,1,13.17,1532,30.44,30.44,0,1,0,69,1507.77a5.74,5.74,0,1,1,10.54-4.57,41.93,41.93,0,0,1-38.42,58.59Z"/><path class="cls-2" d="M449.8,264.31a41.51,41.51,0,0,1-22.58-76.4,5.74,5.74,0,0,1,6.23,9.65A30,30,0,0,0,466,248a5.75,5.75,0,0,1,6.23,9.66A41.31,41.31,0,0,1,449.8,264.31Z"/><path class="cls-2" d="M1106.55,1186.55a52.39,52.39,0,0,1-44.35-80.1,5.75,5.75,0,0,1,9.75,6.08,40.89,40.89,0,0,0,69.4,43.25,5.75,5.75,0,1,1,9.75,6.08,52.07,52.07,0,0,1-32.61,23.32A52.78,52.78,0,0,1,1106.55,1186.55Z"/><path class="cls-2" d="M531.24,1010.18a5.75,5.75,0,0,1-5.43-3.87,47.13,47.13,0,1,1,89.06-30.85A5.75,5.75,0,1,1,604,979.22a35.64,35.64,0,1,0-67.35,23.33,5.75,5.75,0,0,1-3.55,7.31A5.83,5.83,0,0,1,531.24,1010.18Z"/><path class="cls-2" d="M1136,756.49a17.76,17.76,0,0,1-5.52-.89,5.74,5.74,0,1,1,3.57-10.92,6.2,6.2,0,1,0,3.86-11.79,5.75,5.75,0,1,1,3.57-10.93,17.71,17.71,0,0,1-5.48,34.53Z"/><path class="cls-2" d="M509.86,390.8c-.39,0-.78,0-1.18,0a21,21,0,0,1-12.87-36.65,5.75,5.75,0,0,1,7.67,8.56,9.53,9.53,0,0,0,5.83,16.62,9.39,9.39,0,0,0,6.89-2.42,5.75,5.75,0,0,1,7.67,8.56A20.9,20.9,0,0,1,509.86,390.8Z"/><path class="cls-2" d="M759.58,1498.25c-1.58,0-3.17-.08-4.78-.23a49.93,49.93,0,0,1-44.91-54.39,5.75,5.75,0,1,1,11.44,1.1,38.38,38.38,0,0,0,76.42,7.29,5.75,5.75,0,0,1,11.44,1.1A50,50,0,0,1,759.58,1498.25Z"/><path class="cls-2" d="M523.22,178.3a13.61,13.61,0,0,1-13.58-13,5.75,5.75,0,1,1,11.48-.54,2.12,2.12,0,0,0,.69,1.46,2.05,2.05,0,0,0,1.52.55,2.13,2.13,0,0,0,1.47-.69,2.09,2.09,0,0,0,.55-1.53,5.75,5.75,0,1,1,11.48-.54,13.62,13.62,0,0,1-13,14.24Z"/><path class="cls-2" d="M194.38,1564.17a16.57,16.57,0,0,1-11.74-4.84,5.75,5.75,0,1,1,8.11-8.14,5.14,5.14,0,1,0,7.26-7.29,5.75,5.75,0,0,1,8.12-8.14,16.63,16.63,0,0,1-11.75,28.41Z"/><path class="cls-2" d="M500.24,1249.14a5.75,5.75,0,0,1-3.51-10.3,10,10,0,0,0-12.2-15.86,5.74,5.74,0,1,1-7-9.1,21.49,21.49,0,1,1,26.22,34.06A5.69,5.69,0,0,1,500.24,1249.14Z"/><path class="cls-2" d="M1203.82,1576.45a5.12,5.12,0,0,1-.67,0,5.74,5.74,0,0,1-5.05-6.36,22.91,22.91,0,0,0-45.51-5.26,5.74,5.74,0,0,1-11.41-1.32,34.4,34.4,0,0,1,68.34,7.9A5.75,5.75,0,0,1,1203.82,1576.45Z"/><path class="cls-2" d="M18.48,1409.78a5.73,5.73,0,0,1-5.67-4.9,45,45,0,0,1,71.24-42.83,44.64,44.64,0,0,1,17.74,29.52,5.74,5.74,0,0,1-11.36,1.7,33.5,33.5,0,0,0-66.26,9.91,5.75,5.75,0,0,1-4.83,6.54A6.33,6.33,0,0,1,18.48,1409.78Z"/><path class="cls-2" d="M68.16,1134.34a52.21,52.21,0,0,1-6-.34,51.36,51.36,0,0,1-34.63-19.21,5.74,5.74,0,1,1,9-7.15,40.26,40.26,0,0,0,63-50.1,5.74,5.74,0,1,1,9-7.15,51.75,51.75,0,0,1-40.41,83.95Z"/><path class="cls-2" d="M792,50.78a5.75,5.75,0,0,1-1.65-11.25A6.56,6.56,0,0,0,786.61,27a5.74,5.74,0,1,1-3.31-11,18.05,18.05,0,1,1,10.38,34.58A5.88,5.88,0,0,1,792,50.78Z"/><path class="cls-2" d="M125.17,208.09a5.72,5.72,0,0,1-3.2-1,29.55,29.55,0,0,1,32.95-49.06,5.75,5.75,0,0,1-6.41,9.54,18.06,18.06,0,0,0-20.14,30,5.74,5.74,0,0,1-3.2,10.51Z"/><path class="cls-2" d="M891.58,1582.11a5.74,5.74,0,0,1-5.73-5.37A44.22,44.22,0,1,1,974.1,1571a5.75,5.75,0,1,1-11.47.75,32.72,32.72,0,1,0-65.31,4.27,5.76,5.76,0,0,1-5.36,6.11Z"/><path class="cls-2" d="M135.94,48.66a5.74,5.74,0,0,1-4.55-9.25,7.87,7.87,0,1,0-12.47-9.6,5.75,5.75,0,1,1-9.11-7A19.36,19.36,0,0,1,140.5,46.42,5.74,5.74,0,0,1,135.94,48.66Z"/><path class="cls-2" d="M812.41,455.48a5.74,5.74,0,0,1-5.69-5,41.41,41.41,0,1,1,82.12-10.72,5.74,5.74,0,1,1-11.39,1.49A29.92,29.92,0,0,0,818.11,449a5.75,5.75,0,0,1-5,6.45A6.28,6.28,0,0,1,812.41,455.48Z"/><path class="cls-2" d="M602.09,1255.07a20.38,20.38,0,0,1-19.38-14.24,5.75,5.75,0,1,1,11-3.45,8.85,8.85,0,1,0,16.89-5.32,5.75,5.75,0,1,1,11-3.45,20.35,20.35,0,0,1-19.44,26.46Z"/><path class="cls-2" d="M845.23,558.13a24.64,24.64,0,0,1-22.19-14,5.74,5.74,0,1,1,10.38-4.92A13,13,0,0,0,857.49,538a12.93,12.93,0,0,0-.49-10,5.74,5.74,0,1,1,10.38-4.92,24.57,24.57,0,0,1-22.15,35Z"/><path class="cls-2" d="M1033.58,48.48a15.65,15.65,0,0,1-1.45-31.23,5.75,5.75,0,0,1,1.09,11.44A4.16,4.16,0,1,0,1034,37a5.75,5.75,0,1,1,1.08,11.44C1034.59,48.46,1034.08,48.48,1033.58,48.48Z"/><path class="cls-2" d="M1288,236.52a31.33,31.33,0,0,1-4.09-.27,5.74,5.74,0,0,1,1.5-11.39,19.22,19.22,0,1,0,5.06-38.11,5.74,5.74,0,0,1,1.51-11.39,30.71,30.71,0,0,1-4,61.16Z"/><path class="cls-2" d="M360.49,90.73A51.35,51.35,0,0,1,311.12,25.3a5.75,5.75,0,0,1,11.05,3.17,39.78,39.78,0,1,0,76.48,21.92,5.75,5.75,0,0,1,11.05,3.17,51.37,51.37,0,0,1-49.21,37.17Z"/><path class="cls-2" d="M13.51,1027a5.72,5.72,0,0,1-3.79-1.44,28.71,28.71,0,1,1,38-43.08,5.74,5.74,0,1,1-7.59,8.61,17.23,17.23,0,0,0-22.79,25.85,5.75,5.75,0,0,1-3.8,10.06Z"/><path class="cls-2" d="M392.76,504.63a32.61,32.61,0,0,1-32.25-28.26,5.74,5.74,0,0,1,11.39-1.51,21.06,21.06,0,0,0,41.75-5.57A5.74,5.74,0,0,1,425,467.78a32.59,32.59,0,0,1-28,36.56A31.42,31.42,0,0,1,392.76,504.63Z"/><path class="cls-2" d="M993.32,244.4A5.74,5.74,0,0,1,990,234a33.68,33.68,0,0,0-38.66-55.16,5.75,5.75,0,0,1-6.6-9.41,45.17,45.17,0,1,1,51.85,74A5.65,5.65,0,0,1,993.32,244.4Z"/><path class="cls-2" d="M150.23,1274.24a42.09,42.09,0,0,1-23-6.85,5.75,5.75,0,0,1,6.26-9.64,30.91,30.91,0,1,0,33.65-51.85,5.75,5.75,0,0,1,6.26-9.64,42.4,42.4,0,0,1-14.26,77A42.89,42.89,0,0,1,150.23,1274.24Z"/><path class="cls-2" d="M1550.54,1373.54a5.84,5.84,0,0,1-1.09-.11,5.74,5.74,0,0,1-4.55-6.73,29.2,29.2,0,1,0-57.34-11.06,5.74,5.74,0,1,1-11.28-2.18,40.69,40.69,0,1,1,79.9,15.42A5.75,5.75,0,0,1,1550.54,1373.54Z"/><path class="cls-2" d="M538.41,859.39a5.74,5.74,0,0,1-4.95-8.65,3,3,0,1,0-5.13-3,5.75,5.75,0,0,1-9.91-5.82,14.47,14.47,0,1,1,25,14.66A5.74,5.74,0,0,1,538.41,859.39Z"/><path class="cls-2" d="M293,592.22a13.67,13.67,0,0,1-3.35-.42,13.47,13.47,0,0,1-8.32-6.2,5.74,5.74,0,0,1,9.87-5.88,2.06,2.06,0,0,0,1.26.94,2.06,2.06,0,0,0,2.29-3.06,5.74,5.74,0,0,1,9.86-5.88,13.56,13.56,0,0,1-4.7,18.58A13.42,13.42,0,0,1,293,592.22Z"/><path class="cls-2" d="M586.61,315.49h-.44a28.37,28.37,0,0,1-19.33-48.74,5.75,5.75,0,0,1,8,8.25,16.88,16.88,0,0,0,11.5,29,16.59,16.59,0,0,0,12-4.76,5.74,5.74,0,1,1,8,8.24A28.18,28.18,0,0,1,586.61,315.49Z"/><path class="cls-2" d="M194.78,1427.7a23.44,23.44,0,0,1-5.18-.58,23.1,23.1,0,0,1-14.55-10.28,5.75,5.75,0,1,1,9.72-6.13,11.78,11.78,0,0,0,19.93-12.58,5.75,5.75,0,0,1,9.72-6.13,23.28,23.28,0,0,1-19.64,35.7Z"/><path class="cls-2" d="M1151.73,1423.77a5.75,5.75,0,0,1-1.88-11.18,33.35,33.35,0,0,0-21.79-63,5.74,5.74,0,0,1-3.75-10.86,44.85,44.85,0,1,1,29.3,84.77A5.89,5.89,0,0,1,1151.73,1423.77Z"/><path class="cls-2" d="M384.87,685.82a16.16,16.16,0,0,1-11.76-27.21,5.74,5.74,0,1,1,8.37,7.87,4.65,4.65,0,0,0,.21,6.58,4.35,4.35,0,0,0,3.33,1.26,4.6,4.6,0,0,0,3.25-1.46,5.74,5.74,0,1,1,8.38,7.86,16,16,0,0,1-11.27,5.09Z"/><path class="cls-2" d="M377.67,401.26A27.64,27.64,0,0,1,351,366.48a5.75,5.75,0,0,1,11.1,3,16.09,16.09,0,1,0,31.07,8.39,5.75,5.75,0,0,1,11.1,3,27.63,27.63,0,0,1-26.59,20.4Z"/><path class="cls-2" d="M19,281.87a5.74,5.74,0,0,1-1.53-11.28,7.28,7.28,0,1,0-3.89-14,5.74,5.74,0,1,1-3.06-11.07,18.77,18.77,0,1,1,10,36.17A5.83,5.83,0,0,1,19,281.87Z"/><path class="cls-2" d="M1563.36,934.78c-.22,0-.45,0-.67,0a15.07,15.07,0,0,1,3.46-29.94,5.75,5.75,0,1,1-1.32,11.42,3.57,3.57,0,1,0-.82,7.1,5.75,5.75,0,0,1-.65,11.46Z"/><path class="cls-2" d="M1460.48,839.35a20.3,20.3,0,0,1-11.42-3.53,5.75,5.75,0,0,1,6.45-9.51,8.93,8.93,0,0,0,10-14.77A5.75,5.75,0,0,1,1472,802a20.43,20.43,0,0,1-11.51,37.32Z"/><path class="cls-2" d="M917.5,1224.62c-1.19,0-2.38-.06-3.58-.18a33.74,33.74,0,0,1-30-37,5.75,5.75,0,1,1,11.43,1.2,22.2,22.2,0,0,0,44.16,4.64,5.74,5.74,0,0,1,11.42,1.2,33.69,33.69,0,0,1-33.44,30.17Z"/><path class="cls-2" d="M1149.26,561.65a5.74,5.74,0,0,1-4.76-2.53,49.16,49.16,0,1,1,81.48-55,5.74,5.74,0,0,1-9.52,6.43A37.67,37.67,0,1,0,1154,552.69a5.74,5.74,0,0,1-1.55,8A5.67,5.67,0,0,1,1149.26,561.65Z"/><path class="cls-2" d="M1064.22,1570.86h-.12a18.62,18.62,0,0,1-12.53-32,19.07,19.07,0,0,1,13.27-5.2,5.76,5.76,0,0,1,5.64,5.86,5.93,5.93,0,0,1-5.86,5.63,7,7,0,0,0-7.28,7,7.14,7.14,0,0,0,7,7.28,5.75,5.75,0,0,1-.11,11.49Z"/></pattern><pattern id="Neues_Musterfeld_3" data-name="Neues Musterfeld 3" width="1851.73" height="1851.73" patternUnits="userSpaceOnUse" viewBox="0 0 1851.73 1851.73"><rect class="cls-1" width="1851.73" height="1851.73"/><rect class="cls-3" width="1851.73" height="1851.73"/><path class="cls-4" d="M831.57,1504.08h-.18a6.48,6.48,0,0,1-5-2.67l-26.86-37.32-28.88,35.76a6.32,6.32,0,0,1-5.18,2.38,6.44,6.44,0,0,1-5-2.67l-31.73-44.15a6.43,6.43,0,1,1,10.44-7.51l26.81,37.3,28.88-35.74a6.16,6.16,0,0,1,5.18-2.39,6.45,6.45,0,0,1,5,2.67l26.86,37.32,28.91-35.76a6.43,6.43,0,1,1,10,8.09l-34.21,42.3A6.43,6.43,0,0,1,831.57,1504.08Z"/><path class="cls-4" d="M567.84,869.67a6.43,6.43,0,0,1-5.82-9.16l8-17a6.42,6.42,0,0,1,10-2.16l7.89,6.72,4.41-9.38a6.43,6.43,0,0,1,10-2.17l14.29,12.2a6.43,6.43,0,0,1-8.34,9.78l-7.88-6.72-4.4,9.38a6.43,6.43,0,0,1-10,2.17l-7.9-6.73L573.66,866A6.43,6.43,0,0,1,567.84,869.67Z"/><path class="cls-4" d="M372.93,1706.17a6.44,6.44,0,0,1-2.32-.43L353.09,1699a6.43,6.43,0,1,1,4.62-12l9.66,3.72,1-10.3a6.42,6.42,0,0,1,8.7-5.36l9.68,3.72,1-10.32a6.43,6.43,0,0,1,12.8,1.29l-1.88,18.7a6.44,6.44,0,0,1-8.71,5.36l-9.68-3.72-1,10.31a6.42,6.42,0,0,1-6.4,5.79Z"/><path class="cls-4" d="M1249.91,1679.91a6.45,6.45,0,0,1-5.18-2.61L1224,1649.16a6.45,6.45,0,0,1,2.86-9.82l24.76-9.56-15.76-21.34a6.43,6.43,0,0,1,2.86-9.82l32.61-12.57a6.43,6.43,0,1,1,4.62,12l-24.74,9.54,15.76,21.33a6.43,6.43,0,0,1-2.86,9.82l-24.76,9.56,15.76,21.36a6.44,6.44,0,0,1-5.17,10.25Z"/><path class="cls-4" d="M1666.66,1062.11a6.4,6.4,0,0,1-4.47-1.81l-13-12.65a6.43,6.43,0,0,1,8.95-9.23l7,6.77,4.68-8.52a6.42,6.42,0,0,1,4.68-3.27,6.48,6.48,0,0,1,5.43,1.74l7,6.78,4.69-8.53a6.43,6.43,0,0,1,11.27,6.19l-8.75,15.92A6.43,6.43,0,0,1,1684,1057l-7-6.78-4.68,8.54a6.44,6.44,0,0,1-4.68,3.26A6.2,6.2,0,0,1,1666.66,1062.11Z"/><path class="cls-4" d="M176,741a6.7,6.7,0,0,1-1.47-.17l-15.83-3.71a6.43,6.43,0,0,1,2.94-12.52l7.61,1.79-.3-7.83a6.43,6.43,0,0,1,7.89-6.5l7.64,1.78-.3-7.84a6.43,6.43,0,0,1,12.85-.49l.62,16.26a6.43,6.43,0,0,1-7.89,6.5l-7.63-1.78.3,7.83A6.44,6.44,0,0,1,176,741Z"/><path class="cls-4" d="M1345.29,77a6.46,6.46,0,0,1-4.17-1.54l-18.93-16.13a6.43,6.43,0,1,1,8.34-9.79l12.52,10.66,7-14.89a6.43,6.43,0,0,1,4.46-3.56,6.35,6.35,0,0,1,5.53,1.38l12.54,10.67,7-14.91a6.43,6.43,0,0,1,11.64,5.46L1380.62,66.9a6.44,6.44,0,0,1-10,2.17L1358.09,58.4l-7,14.9a6.46,6.46,0,0,1-5.83,3.71Z"/><path class="cls-4" d="M986,891.18a6.39,6.39,0,0,1-4.2-1.56l-13.3-11.51a6.43,6.43,0,0,1,.62-10.2l7.61-5.1-6.92-6a6.42,6.42,0,0,1,.63-10.21l14.6-9.78a6.43,6.43,0,0,1,7.16,10.69l-7.6,5.09,6.91,6a6.42,6.42,0,0,1-.62,10.2l-7.61,5.11,6.93,6A6.43,6.43,0,0,1,986,891.18Z"/><path class="cls-4" d="M271.39,1016a6.42,6.42,0,0,1-6.33-5.32l-5.89-33.63L228.3,991.64a6.44,6.44,0,0,1-9.08-4.71L211.92,945a6.43,6.43,0,0,1,12.67-2.21l5.86,33.61,30.86-14.55a6.43,6.43,0,0,1,9.08,4.7l5.89,33.64,30.88-14.56a6.43,6.43,0,0,1,5.49,11.64l-38.52,18.14A6.4,6.4,0,0,1,271.39,1016Z"/><path class="cls-4" d="M865,215.27a6.38,6.38,0,0,1-4.24-1.6l-47-41.22a6.44,6.44,0,0,1,.7-10.2l45.13-29.8L819,96.8a6.44,6.44,0,0,1,.7-10.2l52.16-34.39a6.43,6.43,0,1,1,7.08,10.73L833.79,92.69l40.65,35.64a6.44,6.44,0,0,1-.7,10.2l-45.13,29.81L869.26,204A6.43,6.43,0,0,1,865,215.27Z"/><path class="cls-4" d="M1642.93,811.24a6.47,6.47,0,0,1-1.85-.27l-17.58-5.29a6.43,6.43,0,0,1,3.7-12.31l9.5,2.85.24-9.91a6.44,6.44,0,0,1,8.28-6l9.51,2.85.25-9.93a6.36,6.36,0,0,1,6.58-6.27,6.43,6.43,0,0,1,6.27,6.59l-.45,18.35a6.42,6.42,0,0,1-8.27,6L1649.6,795l-.25,9.92a6.41,6.41,0,0,1-6.42,6.28Z"/><path class="cls-4" d="M720.59,837.29h-.31a6.43,6.43,0,0,1-5-2.76l-1.39-2-1.57,1.86a6.5,6.5,0,0,1-5.23,2.29,6.39,6.39,0,0,1-5-2.77L696,825a6.43,6.43,0,1,1,10.58-7.31l1.38,2,1.57-1.86a6.42,6.42,0,0,1,10.21.48l1.39,2,1.58-1.88a6.43,6.43,0,0,1,9.84,8.28l-7,8.32A6.43,6.43,0,0,1,720.59,837.29Z"/><path class="cls-4" d="M1666.52,482.89a6.42,6.42,0,0,1-3.3-.91l-12-7.22A6.43,6.43,0,0,1,1650,464.6l4.06-3.89-4.82-2.89a6.43,6.43,0,0,1-1.15-10.16l10.15-9.72a6.43,6.43,0,1,1,8.89,9.29l-4.05,3.88,4.81,2.89a6.43,6.43,0,0,1,1.15,10.16l-4.06,3.89,4.83,2.9a6.43,6.43,0,0,1-3.31,11.94Z"/><path class="cls-4" d="M449.36,1212.86a6.43,6.43,0,0,1-.61-12.83l4.2-.41-1.51-3.95a6.42,6.42,0,0,1,5.38-8.69l4.22-.41-1.51-4a6.43,6.43,0,0,1,12-4.57l4.51,11.83a6.42,6.42,0,0,1-5.39,8.69l-4.21.41,1.51,4a6.42,6.42,0,0,1-5.39,8.69l-12.6,1.22Z"/><path class="cls-4" d="M1730.94,844.35a6.43,6.43,0,0,1-3.25-12L1730,831l-1.89-1.85a6.42,6.42,0,0,1,1.24-10.14l2.3-1.35-1.9-1.87a6.43,6.43,0,1,1,9-9.19l7.93,7.76a6.43,6.43,0,0,1-1.25,10.14l-2.3,1.35,1.9,1.85a6.43,6.43,0,0,1-1.25,10.15l-9.57,5.59A6.34,6.34,0,0,1,1730.94,844.35Z"/><path class="cls-4" d="M1132.57,1038.46a6.43,6.43,0,0,1-1-12.77l31.36-5.23-13.35-28.87a6.43,6.43,0,0,1,4.77-9l31.39-5.26-13.35-28.89A6.43,6.43,0,1,1,1184,943l16.89,36.54a6.43,6.43,0,0,1-4.78,9l-31.38,5.26,13.35,28.87a6.42,6.42,0,0,1-4.77,9l-39.68,6.62A6.53,6.53,0,0,1,1132.57,1038.46Z"/><path class="cls-4" d="M253.89,1679a6.31,6.31,0,0,1-2.12-.37,6.42,6.42,0,0,1-3.94-8.19l7.57-21.62-22.86-1.58a6.43,6.43,0,0,1-5.62-8.54l7.57-21.65-22.88-1.59a6.43,6.43,0,0,1-6-6.86,6.5,6.5,0,0,1,6.86-6l31.28,2.18a6.43,6.43,0,0,1,5.63,8.54L241.84,1635l22.87,1.58a6.43,6.43,0,0,1,5.62,8.54L260,1674.65A6.43,6.43,0,0,1,253.89,1679Z"/><path class="cls-4" d="M80.38,279.35a6.42,6.42,0,0,1-5.33-2.83l-14.26-21.1a6.43,6.43,0,0,1,3.27-9.68l16.12-5.48-9.53-14.1a6.43,6.43,0,0,1,3.26-9.7L98,208.3a6.43,6.43,0,0,1,4.12,12.18L86,225.94,95.56,240a6.44,6.44,0,0,1-3.26,9.69l-16.13,5.48,9.53,14.11a6.43,6.43,0,0,1-5.32,10Z"/><path class="cls-4" d="M639.76,282.35h-.2a6.43,6.43,0,0,1-6.23-6.62l1.57-52.05a6.43,6.43,0,0,1,8.31-6L685,230.51l1.3-43.62a6.43,6.43,0,0,1,8.32-5.95l49.75,15.28a6.43,6.43,0,1,1-3.78,12.29l-41.69-12.8-1.3,43.6a6.43,6.43,0,0,1-8.31,6L647.5,232.49l-1.32,43.62A6.43,6.43,0,0,1,639.76,282.35Z"/><path class="cls-4" d="M815.5,878.47a6.44,6.44,0,0,1-5.62-9.54l7.35-13.36a6.42,6.42,0,0,1,10.11-1.51l4.9,4.75,3.3-6a6.42,6.42,0,0,1,10.11-1.51l10.93,10.62a6.43,6.43,0,1,1-9,9.23l-4.88-4.75-3.29,6a6.43,6.43,0,0,1-10.11,1.52l-4.9-4.76-3.3,6A6.44,6.44,0,0,1,815.5,878.47Z"/><path class="cls-4" d="M1483.38,132.78a6.4,6.4,0,0,1-3.61-1.12l-13.65-9.27a6.44,6.44,0,0,1-.56-10.21l6.14-5.24L1465,102.4a6.42,6.42,0,0,1-.56-10.21L1477,81.49a6.43,6.43,0,0,1,8.34,9.79l-6.13,5.22,6.67,4.54a6.42,6.42,0,0,1,.57,10.2l-6.14,5.25L1487,121a6.43,6.43,0,0,1-3.62,11.75Z"/><path class="cls-4" d="M1612.77,1675.16a6.42,6.42,0,0,1-5.22-10.17l18.53-25.87a6.43,6.43,0,0,1,5-2.68,6.25,6.25,0,0,1,5.18,2.37l14.75,18.16,13.61-19a6.43,6.43,0,0,1,5-2.68,6.05,6.05,0,0,1,5.19,2.37l20,24.7a6.43,6.43,0,1,1-10,8.1l-14.72-18.15-13.61,19a6.41,6.41,0,0,1-5,2.69,6.5,6.5,0,0,1-5.19-2.38l-14.75-18.15-13.62,19A6.43,6.43,0,0,1,1612.77,1675.16Z"/><path class="cls-4" d="M1307.06,1459.64a6.43,6.43,0,0,1-2.79-12.22l8.76-4.21-6.37-7.34a6.43,6.43,0,0,1,2.07-10l8.77-4.21-6.38-7.35a6.43,6.43,0,1,1,9.71-8.43l11.91,13.71a6.43,6.43,0,0,1-2.07,10l-8.78,4.21,6.38,7.35a6.42,6.42,0,0,1-2.07,10l-16.36,7.85A6.44,6.44,0,0,1,1307.06,1459.64Z"/><path class="cls-4" d="M638.41,1665.33A6.44,6.44,0,0,1,632,1659l-1.13-54.58L578.51,1620a6.43,6.43,0,0,1-8.26-6l-1.18-54.62-52.37,15.54a6.43,6.43,0,0,1-3.66-12.33l60.45-17.94a6.43,6.43,0,0,1,8.26,6l1.17,54.61,52.36-15.55a6.43,6.43,0,0,1,8.26,6l1.3,63a6.43,6.43,0,0,1-6.3,6.56Z"/><path class="cls-4" d="M1623.37,142.7a6.52,6.52,0,0,1-2.32-.43l-30.76-11.9a6.43,6.43,0,0,1-2.85-9.81L1602,100.81,1579.13,92a6.43,6.43,0,0,1-2.85-9.83l19.59-26.49a6.43,6.43,0,1,1,10.34,7.64L1591.63,83l22.89,8.84a6.44,6.44,0,0,1,2.85,9.82l-14.58,19.75,22.9,8.85a6.43,6.43,0,0,1-2.32,12.43Z"/><path class="cls-4" d="M770.62,1237.22a6.46,6.46,0,0,1-4.5-1.84l-13.83-13.56a6.43,6.43,0,1,1,9-9.18l7.81,7.65,5.32-9.56a6.43,6.43,0,0,1,10.12-1.47l7.82,7.67,5.33-9.57a6.43,6.43,0,1,1,11.24,6.25l-9.43,16.93a6.43,6.43,0,0,1-10.12,1.47l-7.82-7.66-5.32,9.56a6.45,6.45,0,0,1-4.7,3.24A7.26,7.26,0,0,1,770.62,1237.22Z"/><path class="cls-4" d="M892.37,1347.47a6.41,6.41,0,0,1-3.58-1.09l-46.45-31.14a6.43,6.43,0,0,1,7.16-10.68L888.94,1331,904,1286a6.44,6.44,0,0,1,9.68-3.3l39.49,26.43L968.25,1264a6.43,6.43,0,0,1,12.2,4.08l-17.76,53.06a6.43,6.43,0,0,1-9.67,3.31L913.52,1298l-15.06,45.06a6.4,6.4,0,0,1-6.09,4.39Z"/><path class="cls-4" d="M512.59,624.87a6.52,6.52,0,0,1-3.75-1.19l-12.26-8.78a6.43,6.43,0,0,1,7.49-10.46l5.4,3.87,2.3-6.24a6.42,6.42,0,0,1,9.77-3l5.42,3.87,2.3-6.25a6.43,6.43,0,0,1,12.07,4.45l-5.23,14.15a6.42,6.42,0,0,1-9.77,3l-5.41-3.86-2.3,6.24a6.4,6.4,0,0,1-6,4.2Z"/><path class="cls-4" d="M1358.54,230.92a6.43,6.43,0,0,1-5-10.53l16.65-20.1-23.79-10.73a6.44,6.44,0,0,1-2.31-10l16.65-20.12L1337,148.72a6.43,6.43,0,1,1,5.3-11.72l31.47,14.22a6.43,6.43,0,0,1,2.31,10l-16.65,20.12,23.8,10.74a6.43,6.43,0,0,1,2.3,10l-22,26.58A6.42,6.42,0,0,1,1358.54,230.92Z"/><path class="cls-4" d="M1771.59,1386.83a6.44,6.44,0,0,1-6.16-4.59l-7.79-26.09-23.09,14.4a6.43,6.43,0,0,1-9.57-3.62l-10.17-34.14a6.43,6.43,0,1,1,12.32-3.68l7.77,26.07,23.08-14.4a6.43,6.43,0,0,1,9.57,3.62l7.79,26.09,23.1-14.4a6.43,6.43,0,1,1,6.8,10.91L1775,1385.85A6.36,6.36,0,0,1,1771.59,1386.83Z"/><path class="cls-4" d="M1058.94,736.82a6.48,6.48,0,0,1-2.17-.38l-12-4.3a6.43,6.43,0,1,1,4.35-12.1l4,1.44.33-4.26a6.43,6.43,0,0,1,8.59-5.55l4,1.45.33-4.28a6.43,6.43,0,0,1,12.82,1l-1,12.67a6.44,6.44,0,0,1-8.59,5.56l-4-1.45-.33,4.26a6.43,6.43,0,0,1-6.41,5.94Z"/><path class="cls-4" d="M1671.22,1805a6.43,6.43,0,0,1-2.47-12.37l4.29-1.78-2.87-3.67a6.44,6.44,0,0,1,2.6-9.89l4.31-1.8-2.87-3.67a6.43,6.43,0,1,1,10.14-7.91l8.05,10.32a6.43,6.43,0,0,1-2.6,9.88l-4.3,1.8,2.86,3.67a6.44,6.44,0,0,1-2.59,9.9l-12.08,5A6.34,6.34,0,0,1,1671.22,1805Z"/><path class="cls-4" d="M653,730.35a6.46,6.46,0,0,1-2.52-.52l-31.43-13.4a6.42,6.42,0,0,1-2.51-9.91l16-20.18-23.67-10.08a6.45,6.45,0,0,1-2.52-9.92l21.23-26.74a6.43,6.43,0,1,1,10.07,8l-16,20.14,23.67,10.09a6.41,6.41,0,0,1,2.51,9.9l-16,20.18L655.54,718A6.43,6.43,0,0,1,653,730.35Z"/><path class="cls-4" d="M1717.63,386.81a6.39,6.39,0,0,1-2.71-.6L1699.34,379a6.44,6.44,0,0,1-2.19-10l5.65-6.67-7.93-3.69a6.43,6.43,0,0,1-2.2-10l11.1-13.1a6.43,6.43,0,1,1,9.81,8.31l-5.65,6.66,7.93,3.69a6.42,6.42,0,0,1,2.2,10l-5.65,6.68,7.93,3.69a6.43,6.43,0,0,1-2.71,12.26Z"/><path class="cls-4" d="M733.18,977.49a6.44,6.44,0,0,1-5-10.49l6.16-7.56-8.93-3.94a6.42,6.42,0,0,1-2.4-9.93L729.2,938l-8.94-4a6.43,6.43,0,1,1,5.19-11.76l16.65,7.34a6.44,6.44,0,0,1,2.39,9.94l-6.16,7.58,8.93,3.94a6.42,6.42,0,0,1,2.39,9.94l-11.48,14.1A6.41,6.41,0,0,1,733.18,977.49Z"/><path class="cls-4" d="M144.3,596.8a6.43,6.43,0,0,1-6.43-6.35l-.38-32.85-31.59,9.07a6.36,6.36,0,0,1-5.61-1,6.46,6.46,0,0,1-2.6-5.08l-.4-32.88-31.61,9.07a6.43,6.43,0,1,1-3.55-12.37L101.84,513a6.46,6.46,0,0,1,5.61,1,6.39,6.39,0,0,1,2.59,5.08l.41,32.88L142,542.91a6.43,6.43,0,0,1,8.21,6.11l.47,41.28a6.42,6.42,0,0,1-6.35,6.5Z"/><path class="cls-4" d="M68,697.53a7.43,7.43,0,0,1-.94-.07l-12.44-1.83a6.43,6.43,0,0,1-5-8.94l1.67-3.8-4.1-.6a6.44,6.44,0,0,1-5-8.94l5.05-11.51A6.43,6.43,0,1,1,59.12,667l-1.65,3.78,4.09.6a6.44,6.44,0,0,1,5,8.94l-1.67,3.8,4.11.6a6.44,6.44,0,0,1-.93,12.8Z"/><path class="cls-4" d="M861.37,1009.71a6.43,6.43,0,0,1-2.44-.48l-35.17-14.38a6.43,6.43,0,0,1,4.86-11.91L856,994.14l3.55-29.38a6.42,6.42,0,0,1,8.81-5.18l27.41,11.18,3.56-29.39a6.43,6.43,0,1,1,12.76,1.55l-4.56,37.75a6.44,6.44,0,0,1-8.82,5.18l-27.4-11.18-3.55,29.38a6.45,6.45,0,0,1-6.38,5.66Z"/><path class="cls-4" d="M1790.28,646.52a6.36,6.36,0,0,1-4.17-1.54l-45.58-39a6.44,6.44,0,0,1,.56-10.21l42.63-29-39.17-33.46a6.42,6.42,0,0,1,.56-10.21l49.6-33.63a6.43,6.43,0,1,1,7.21,10.64l-42.61,28.9,39.17,33.45a6.44,6.44,0,0,1-.56,10.21l-42.63,29,39.17,33.48a6.43,6.43,0,0,1-4.18,11.32Z"/><path class="cls-4" d="M1804.15,878.31a6.43,6.43,0,0,1-5.16-2.58l-6.61-8.84a6.43,6.43,0,0,1,2.8-9.83l2.43-1L1796,854a6.43,6.43,0,0,1,2.8-9.83l10.27-4a6.43,6.43,0,0,1,4.7,12l-2.42.95,1.56,2.09a6.42,6.42,0,0,1-2.79,9.83l-2.44,1,1.57,2.09a6.43,6.43,0,0,1-5.14,10.28Z"/><path class="cls-4" d="M898.5,1810.09a6.44,6.44,0,0,1-4.59-1.92l-18.53-18.85a6.43,6.43,0,0,1,9.18-9l12.61,12.84,9.05-15.57a6.43,6.43,0,0,1,10.14-1.28L929,1789.13l9-15.58a6.43,6.43,0,1,1,11.12,6.46l-13.29,22.87a6.45,6.45,0,0,1-4.76,3.15,6.38,6.38,0,0,1-5.38-1.87l-12.64-12.85-9.05,15.58a6.42,6.42,0,0,1-4.76,3.15A5.37,5.37,0,0,1,898.5,1810.09Z"/><path class="cls-4" d="M1002.44,74.77a6.45,6.45,0,0,1-5.39-2.91l-1.95-3-2.36,2.67a6.35,6.35,0,0,1-5.28,2.16,6.42,6.42,0,0,1-4.92-2.89l-2-3-2.36,2.68A6.43,6.43,0,1,1,968.58,62l7.94-9a6.64,6.64,0,0,1,5.28-2.15,6.42,6.42,0,0,1,4.92,2.89l2,3L991,54.05a6.5,6.5,0,0,1,5.28-2.16,6.42,6.42,0,0,1,4.92,2.89l6.57,10a6.43,6.43,0,0,1-5.37,10Z"/><path class="cls-4" d="M1365.36,805.89a6.43,6.43,0,0,1-4.84-10.66l16.32-18.67-22.32-10.8a6.43,6.43,0,0,1-2-10l16.32-18.69-22.33-10.82a6.43,6.43,0,1,1,5.6-11.57L1382,729.15a6.42,6.42,0,0,1,2,10l-16.32,18.7L1390,768.67a6.41,6.41,0,0,1,2,10l-21.87,25A6.42,6.42,0,0,1,1365.36,805.89Z"/><path class="cls-4" d="M388.81,942.42a6.43,6.43,0,0,1-.47-12.84l32.87-2.46-11.07-31a6.43,6.43,0,0,1,5.57-8.58l32.9-2.48-11.07-31.08a6.43,6.43,0,1,1,12.11-4.31l13.9,39A6.41,6.41,0,0,1,458,897.2l-32.9,2.49,11.07,31.06a6.42,6.42,0,0,1-5.58,8.57L389.3,942.4Z"/><path class="cls-4" d="M164.63,437.56a6.43,6.43,0,0,1-3.37-11.91l29.68-18.25-25.46-23.8a6.43,6.43,0,0,1,1-10.17l29.71-18.29-25.48-23.83a6.43,6.43,0,1,1,8.79-9.39l31.62,29.58a6.42,6.42,0,0,1-1,10.17L180.41,380l25.48,23.8a6.44,6.44,0,0,1-1,10.18L168,436.6A6.36,6.36,0,0,1,164.63,437.56Z"/><path class="cls-4" d="M731.69,80.91a7.57,7.57,0,0,1-.94-.07,6.45,6.45,0,0,1-4.69-3.24l-3.54-6.4-5.23,5.11a6.43,6.43,0,0,1-10.12-1.49l-7.63-13.76a6.43,6.43,0,1,1,11.25-6.23l3.54,6.39,5.22-5.11a6.44,6.44,0,0,1,10.12,1.48l3.55,6.4,5.24-5.11a6.42,6.42,0,1,1,9,9.19l-11.26,11A6.41,6.41,0,0,1,731.69,80.91Z"/><path class="cls-4" d="M412.3,1802.22a6.43,6.43,0,0,1-5.41-9.9l13-20.26a6.43,6.43,0,0,1,10.19-.84l10.47,11.63,8.44-13.17a6.42,6.42,0,0,1,4.89-2.93,6.33,6.33,0,0,1,5.31,2.1l16.09,17.89a6.43,6.43,0,0,1-9.57,8.6l-10.44-11.61-8.45,13.16a6.43,6.43,0,0,1-4.88,2.93,6.3,6.3,0,0,1-5.31-2.1l-10.47-11.63-8.45,13.17A6.43,6.43,0,0,1,412.3,1802.22Z"/><path class="cls-4" d="M1796,1805.39a6.38,6.38,0,0,1-3.69-1.17l-10.69-7.51a6.45,6.45,0,0,1-.4-10.22l3.57-3-3.79-2.66a6.43,6.43,0,0,1-.4-10.22l10.06-8.32a6.43,6.43,0,0,1,8.19,9.92l-3.56,2.94,3.79,2.66a6.44,6.44,0,0,1,.4,10.21l-3.57,3,3.79,2.67a6.43,6.43,0,0,1-3.7,11.69Z"/><path class="cls-4" d="M1599.08,1349.6l-.59,0-42.17-3.9a6.43,6.43,0,1,1,1.19-12.8l33.77,3.12-5.94-33.4a6.43,6.43,0,0,1,1.6-5.48,6.33,6.33,0,0,1,5.32-2l33.81,3.1-5.94-33.42a6.43,6.43,0,0,1,12.67-2.25l7.4,41.72a6.43,6.43,0,0,1-6.92,7.52l-33.8-3.09,5.93,33.41a6.37,6.37,0,0,1-1.59,5.47A6.46,6.46,0,0,1,1599.08,1349.6Z"/><path class="cls-4" d="M461.89,1485.82a6.39,6.39,0,0,1-3.71-1.18L441,1472.47a6.43,6.43,0,0,1,7.43-10.5l10.33,7.31,4.31-11.91a6.44,6.44,0,0,1,9.76-3.06l10.35,7.31,4.32-11.91a6.43,6.43,0,0,1,12.09,4.39l-7.2,19.83a6.43,6.43,0,0,1-9.75,3.06l-10.35-7.32-4.32,11.92a6.41,6.41,0,0,1-4.12,3.94A6.34,6.34,0,0,1,461.89,1485.82Z"/><path class="cls-4" d="M1477.94,1286.53a6.45,6.45,0,0,1-4.45-1.78l-8.28-7.92a6.43,6.43,0,0,1,8.89-9.3l2.19,2.09,1.44-2.66a6.42,6.42,0,0,1,10.09-1.6l2.2,2.1,1.45-2.67a6.43,6.43,0,1,1,11.31,6.12l-5.45,10.08a6.43,6.43,0,0,1-10.1,1.59l-2.19-2.1-1.45,2.68a6.41,6.41,0,0,1-4.65,3.29A5.7,5.7,0,0,1,1477.94,1286.53Z"/><path class="cls-4" d="M211.94,1156.14a6.45,6.45,0,0,1-3.48-1l-11.86-7.64a6.44,6.44,0,0,1-.81-10.19l4.22-3.79-4.77-3.07a6.43,6.43,0,0,1-.81-10.2l10.49-9.41a6.43,6.43,0,0,1,8.59,9.58l-4.22,3.78,4.77,3.07a6.42,6.42,0,0,1,.81,10.19l-4.22,3.79,4.78,3.08a6.43,6.43,0,0,1-3.49,11.83Z"/><path class="cls-4" d="M1788.18,397.53a6.43,6.43,0,0,1-3.35-11.92l4.35-2.64-3.7-3.5a6.43,6.43,0,0,1,1.08-10.16l4.36-2.65-3.71-3.51a6.43,6.43,0,1,1,8.84-9.34l9.83,9.29a6.44,6.44,0,0,1-1.08,10.17l-4.36,2.64,3.71,3.51a6.43,6.43,0,0,1-1.08,10.16l-11.56,7A6.43,6.43,0,0,1,1788.18,397.53Z"/><path class="cls-4" d="M1505,1684a6.43,6.43,0,0,1-2-12.56l9.35-3-5.36-8.23a6.44,6.44,0,0,1,3.44-9.63l9.35-3-5.35-8.23a6.43,6.43,0,1,1,10.78-7l10,15.3a6.44,6.44,0,0,1-3.43,9.63l-9.36,3,5.36,8.23a6.45,6.45,0,0,1-3.44,9.64l-17.37,5.54A6.37,6.37,0,0,1,1505,1684Z"/><path class="cls-4" d="M277.21,467.38A6.44,6.44,0,0,1,274.76,455l36.72-15.07L287.2,408.49a6.42,6.42,0,0,1,2.65-9.87l36.74-15.13L302.31,352a6.43,6.43,0,0,1,10.18-7.85l29.43,38.12a6.42,6.42,0,0,1-2.65,9.87L302.53,407.3l24.28,31.43a6.42,6.42,0,0,1-2.64,9.88l-44.52,18.28A6.4,6.4,0,0,1,277.21,467.38Z"/><path class="cls-4" d="M1798.48,757.71a6.43,6.43,0,0,1-6.15-4.57l-6.16-20.46-18.1,11.37a6.43,6.43,0,0,1-9.58-3.59L1752.31,720l-18.12,11.37a6.43,6.43,0,1,1-6.84-10.89l25.25-15.85a6.43,6.43,0,0,1,9.58,3.59l6.18,20.47,18.11-11.37a6.43,6.43,0,0,1,9.58,3.59l8.59,28.53a6.43,6.43,0,0,1-4.3,8A6.59,6.59,0,0,1,1798.48,757.71Z"/><path class="cls-4" d="M1212.44,727.88a6.47,6.47,0,0,1-4.24-1.59L1189,709.47a6.43,6.43,0,0,1,8.47-9.68l12.87,11.27,7.46-15.41a6.43,6.43,0,0,1,10-2l12.9,11.27,7.46-15.41a6.43,6.43,0,0,1,11.58,5.61l-11.15,23a6.41,6.41,0,0,1-4.5,3.5,6.5,6.5,0,0,1-5.51-1.46l-12.9-11.27-7.46,15.41a6.44,6.44,0,0,1-4.5,3.5A7,7,0,0,1,1212.44,727.88Z"/><path class="cls-4" d="M1017.69,1473.89a6.27,6.27,0,0,1-2.34-.44,6.38,6.38,0,0,1-3.84-4.21l-4.71-16.41-14.58,8.88a6.43,6.43,0,0,1-9.53-3.72l-7-24.5a6.43,6.43,0,1,1,12.37-3.55l4.69,16.4,14.57-8.88a6.43,6.43,0,0,1,9.53,3.72l4.71,16.41,14.59-8.87a6.43,6.43,0,1,1,6.68,11L1021,1473A6.43,6.43,0,0,1,1017.69,1473.89Z"/><path class="cls-4" d="M60.17,935.3a6.43,6.43,0,0,1-3.62-11.75l36.26-24.67L59.4,870.43a6.42,6.42,0,0,1,.55-10.2L96.23,835.5,62.81,807a6.43,6.43,0,1,1,8.34-9.79L111,831.17a6.43,6.43,0,0,1-.55,10.21L74.16,866.11l33.41,28.44a6.43,6.43,0,0,1-.55,10.21L63.78,934.18A6.32,6.32,0,0,1,60.17,935.3Z"/><path class="cls-4" d="M1084.54,883.78a5.51,5.51,0,0,1-1-.08,6.43,6.43,0,0,1-5.38-7.33l5.13-33.15a6.43,6.43,0,0,1,9-4.89l22.93,10.25,3.83-24.81a6.43,6.43,0,0,1,9-4.89l30.59,13.71a6.43,6.43,0,0,1-5.25,11.73l-22.9-10.26-3.83,24.81a6.43,6.43,0,0,1-9,4.89l-22.93-10.25-3.84,24.82A6.43,6.43,0,0,1,1084.54,883.78Z"/><path class="cls-4" d="M577.94,1275.43a6.43,6.43,0,0,1-3.42-11.88l26.19-16.43-22.79-20.91a6.43,6.43,0,0,1,.93-10.18l26.2-16.46-22.79-20.93a6.43,6.43,0,0,1,8.69-9.47l29,26.63A6.42,6.42,0,0,1,619,1206l-26.19,16.46,22.79,20.91a6.43,6.43,0,0,1-.93,10.18l-33.34,20.91A6.36,6.36,0,0,1,577.94,1275.43Z"/><path class="cls-4" d="M1791.69,112.29a6.42,6.42,0,0,1-6.25-5l-6-25.74-23.24,12.61a6.43,6.43,0,0,1-9.33-4.18l-6-25.77-23.27,12.62a6.43,6.43,0,0,1-6.13-11.3l30.67-16.64a6.44,6.44,0,0,1,9.33,4.19l6,25.76,23.25-12.62a6.44,6.44,0,0,1,9.33,4.19l7.92,34a6.42,6.42,0,0,1-4.8,7.72A6.15,6.15,0,0,1,1791.69,112.29Z"/><path class="cls-4" d="M1047.4,339.26a6.41,6.41,0,0,1-4.82-2.18l-37.77-42.78a6.43,6.43,0,0,1,9.63-8.51l32.19,36.46,26.64-40.71a6.42,6.42,0,0,1,4.92-2.89,6.51,6.51,0,0,1,5.28,2.15l32.25,36.47,26.67-40.72a6.43,6.43,0,1,1,10.75,7l-31.28,47.77a6.42,6.42,0,0,1-4.92,2.89,6.53,6.53,0,0,1-5.28-2.15l-32.24-36.46-26.64,40.71a6.42,6.42,0,0,1-4.92,2.89Z"/><path class="cls-4" d="M493.81,1074.46a6.27,6.27,0,0,1-1.55-.19l-40.13-9.92a6.43,6.43,0,1,1,3.09-12.48l31.94,7.9-.84-32.91a6.42,6.42,0,0,1,8-6.41l32,7.88-.83-32.93a6.43,6.43,0,0,1,6.26-6.59,6.35,6.35,0,0,1,6.59,6.26l1,41.36a6.42,6.42,0,0,1-8,6.4l-32-7.88.84,32.92a6.43,6.43,0,0,1-6.42,6.59Z"/><path class="cls-4" d="M641.4,1802a6.41,6.41,0,0,1-5.36-2.87l-17.8-26.75-21.1,24.26a6.3,6.3,0,0,1-5.26,2.19,6.43,6.43,0,0,1-4.94-2.85L569.1,1769.2,548,1793.46a6.43,6.43,0,1,1-9.7-8.44l26.64-30.62a6.33,6.33,0,0,1,5.26-2.2,6.46,6.46,0,0,1,4.94,2.85L593,1781.82l21.1-24.27a6.5,6.5,0,0,1,5.26-2.19,6.43,6.43,0,0,1,4.94,2.85L646.74,1792a6.43,6.43,0,0,1-5.34,10Z"/><path class="cls-4" d="M1209.91,1138.23a6.42,6.42,0,0,1-5.21-10.18l8.16-11.36a6.42,6.42,0,0,1,5-2.67,6.35,6.35,0,0,1,5.18,2.38l3.5,4.32,3.24-4.52a6.44,6.44,0,0,1,5-2.67,6.18,6.18,0,0,1,5.19,2.38l8.79,10.87a6.43,6.43,0,1,1-10,8.08l-3.49-4.31-3.23,4.51a6.43,6.43,0,0,1-10.22.3l-3.5-4.32-3.25,4.52A6.42,6.42,0,0,1,1209.91,1138.23Z"/><path class="cls-4" d="M1522.07,1035.86a6.16,6.16,0,0,1-1.7-.23,6.41,6.41,0,0,1-4.26-3.78l-11.7-28.89-24.76,18.92a6.44,6.44,0,0,1-9.87-2.7L1455,982.49a6.43,6.43,0,0,1,11.93-4.82l11.66,28.87,24.76-18.91a6.43,6.43,0,0,1,9.86,2.69l11.7,28.89,24.78-18.91a6.43,6.43,0,0,1,7.81,10.22l-31.48,24A6.4,6.4,0,0,1,1522.07,1035.86Z"/><path class="cls-4" d="M1073.35,186.91a6.43,6.43,0,0,1-2.54-12.34l40.69-17.46-27.62-34.63a6.41,6.41,0,0,1,2.48-9.91l40.71-17.51-27.62-34.64a6.43,6.43,0,1,1,10-8l32.88,41.24a6.44,6.44,0,0,1-2.49,9.91l-40.71,17.5,27.63,34.63a6.43,6.43,0,0,1-2.49,9.92l-48.43,20.78A6.36,6.36,0,0,1,1073.35,186.91Z"/><path class="cls-4" d="M1414.53,902.4a6.46,6.46,0,0,1-4.54-1.87l-19.77-19.73a6.43,6.43,0,0,1,9.08-9.11l13.8,13.78,9.63-17a6.44,6.44,0,0,1,10.13-1.38l13.83,13.78,9.64-17a6.43,6.43,0,1,1,11.19,6.35l-13.81,24.3a6.44,6.44,0,0,1-10.13,1.38l-13.83-13.78-9.63,17a6.44,6.44,0,0,1-4.72,3.19A6.36,6.36,0,0,1,1414.53,902.4Z"/><path class="cls-4" d="M291.7,680.19A6.39,6.39,0,0,1,287,678.1l-31.53-34.38a6.42,6.42,0,0,1,1.79-10.06l34-17.5L265.37,588a6.43,6.43,0,0,1,1.8-10.06l41.48-21.31a6.43,6.43,0,0,1,5.88,11.44l-34,17.45,25.84,28.16a6.43,6.43,0,0,1-1.8,10.06l-34,17.49,25.84,28.18a6.44,6.44,0,0,1-4.74,10.78Z"/><path class="cls-4" d="M313.87,1811.69a6.41,6.41,0,0,1-5.34-2.85l-23.51-35-27.52,32a6.24,6.24,0,0,1-5.25,2.21,6.44,6.44,0,0,1-5-2.82l-23.55-35-27.54,32a6.43,6.43,0,0,1-9.74-8.39l33-38.34a6.37,6.37,0,0,1,5.25-2.22,6.44,6.44,0,0,1,4.95,2.83l23.56,35,27.52-32a6.43,6.43,0,0,1,10.21.62l28.21,42a6.44,6.44,0,0,1-5.33,10Z"/><path class="cls-4" d="M754.7,366.31a6.42,6.42,0,0,1-5.64-3.33l-9.54-17.35a6.43,6.43,0,0,1,4.12-9.35l11.07-2.66-5.49-10a6.45,6.45,0,0,1,4.14-9.36l19.25-4.61a6.43,6.43,0,1,1,3,12.51l-11.05,2.65L770,334.8a6.44,6.44,0,0,1-4.13,9.35l-11.07,2.66,5.48,10a6.42,6.42,0,0,1-2.53,8.73A6.28,6.28,0,0,1,754.7,366.31Z"/><path class="cls-4" d="M777.29,738.32a6.43,6.43,0,0,1-4.44-11.07l27.29-26.16L767.67,681.7a6.44,6.44,0,0,1-1.15-10.16l27.3-26.2-32.47-19.42a6.43,6.43,0,0,1,6.59-11l39.71,23.75a6.42,6.42,0,0,1,1.15,10.15L781.51,675,814,694.38a6.45,6.45,0,0,1,1.14,10.17l-33.38,32A6.38,6.38,0,0,1,777.29,738.32Z"/><path class="cls-4" d="M1562.6,1182a7.31,7.31,0,0,1-1.14-.1,6.45,6.45,0,0,1-4.58-3.4l-22.64-44.1-36.55,33.48a6.42,6.42,0,0,1-10.06-1.8l-26.44-51.59a6.43,6.43,0,1,1,11.44-5.87l22.59,44.08,36.55-33.47a6.42,6.42,0,0,1,10.06,1.81l22.64,44.1,36.57-33.48a6.43,6.43,0,1,1,8.68,9.49l-42.78,39.16A6.38,6.38,0,0,1,1562.6,1182Z"/><path class="cls-4" d="M933.82,1180.32a6.36,6.36,0,0,1-1.77-.25l-28-8a6.42,6.42,0,0,1-3.74-9.51L911,1144.84l-19.93-5.66a6.43,6.43,0,0,1-3.74-9.52l15.11-24.92a6.43,6.43,0,0,1,11,6.67l-10.73,17.7,19.92,5.67a6.43,6.43,0,0,1,3.75,9.51L915.63,1162l19.94,5.67a6.43,6.43,0,0,1-1.75,12.62Z"/><path class="cls-4" d="M1203.51,446.11a6.39,6.39,0,0,1-1.84-.26l-13.91-4.15a6.43,6.43,0,1,1,3.68-12.32l5.82,1.73.13-6.08a6.43,6.43,0,0,1,8.26-6l5.85,1.74.13-6.1a6.43,6.43,0,0,1,6.42-6.29h.15a6.44,6.44,0,0,1,6.29,6.58l-.32,14.51a6.43,6.43,0,0,1-8.26,6l-5.84-1.73-.13,6.08a6.44,6.44,0,0,1-6.43,6.29Z"/><path class="cls-4" d="M699.67,555.08a6.49,6.49,0,0,1-1.9-.29l-45.52-14.16a6.43,6.43,0,1,1,3.82-12.28L693.53,540l1.32-39.22a6.43,6.43,0,0,1,8.33-5.92l37.5,11.64L742,467.25a6.43,6.43,0,1,1,12.85.43l-1.62,47.67a6.43,6.43,0,0,1-8.33,5.92l-37.5-11.64-1.32,39.24a6.43,6.43,0,0,1-6.43,6.21Z"/><path class="cls-4" d="M1009.62,1048.89a6.56,6.56,0,0,1-.76,0l-36.37-4.3a6.43,6.43,0,1,1,1.51-12.77l28,3.31-4.23-27.88a6.43,6.43,0,0,1,7.11-7.35l28,3.29-4.22-27.9a6.43,6.43,0,0,1,12.71-1.93l5.48,36.24a6.43,6.43,0,0,1-7.11,7.34l-28-3.29,4.23,27.89a6.44,6.44,0,0,1-6.36,7.39Z"/><path class="cls-4" d="M1548.07,498.85a6.43,6.43,0,0,1-6.41-6.07l-2.23-40-38,12.77a6.43,6.43,0,0,1-8.47-5.73l-2.26-40.07-38.05,12.76a6.43,6.43,0,0,1-4.09-12.2l46-15.43a6.42,6.42,0,0,1,8.46,5.73l2.27,40.06,38-12.76a6.42,6.42,0,0,1,8.46,5.74l2.71,48.45a6.43,6.43,0,0,1-6.06,6.78Z"/><path class="cls-4" d="M372.14,1595.33a6.44,6.44,0,0,1-6-8.84l6.81-16.88a6.42,6.42,0,0,1,9.85-2.71l7.78,5.92,3.66-9.07a6.42,6.42,0,0,1,9.86-2.71l14.47,11a6.43,6.43,0,1,1-7.79,10.22l-7.77-5.91-3.64,9.06a6.44,6.44,0,0,1-9.86,2.71l-7.79-5.92-3.66,9.07A6.43,6.43,0,0,1,372.14,1595.33Z"/><path class="cls-4" d="M1492.15,1561.28a6.43,6.43,0,0,1-1-12.78l49-7.62-20.35-45.3a6.42,6.42,0,0,1,4.87-9l49.08-7.67-20.34-45.32a6.43,6.43,0,0,1,11.73-5.26l23.79,53a6.43,6.43,0,0,1-4.87,9l-49.08,7.66,20.35,45.3a6.43,6.43,0,0,1-4.88,9l-57.38,8.92A6.59,6.59,0,0,1,1492.15,1561.28Z"/><path class="cls-4" d="M1131.32,614.4h0l-32.49-.27a6.43,6.43,0,0,1,0-12.85h.05l24.06.19-6.18-23.26a6.43,6.43,0,0,1,6.26-8.08l24.08.18L1140.92,547a6.43,6.43,0,1,1,12.43-3.3l8.34,31.42a6.42,6.42,0,0,1-1.13,5.59,6.22,6.22,0,0,1-5.13,2.49l-24.08-.19,6.18,23.27a6.43,6.43,0,0,1-6.21,8.08Z"/><path class="cls-4" d="M1785.7,994.69a6.43,6.43,0,0,1-1.42-12.7l3.35-.76-1.63-3a6.43,6.43,0,0,1,4.23-9.31l3.37-.77-1.64-3A6.43,6.43,0,0,1,1803.3,959l5.61,10.46a6.43,6.43,0,0,1-4.23,9.31l-3.36.77,1.63,3a6.44,6.44,0,0,1-4.24,9.31l-11.57,2.64A6.42,6.42,0,0,1,1785.7,994.69Z"/><path class="cls-4" d="M248.8,238.05a6.45,6.45,0,0,1-4.73-2.08l-42.45-46.19a6.43,6.43,0,0,1,9.47-8.7l36.74,40,28.83-46a6.44,6.44,0,0,1,10.19-.94l36.8,40,28.86-46a6.43,6.43,0,0,1,10.89,6.83L330.07,228a6.43,6.43,0,0,1-10.18.94l-36.8-40-28.83,46a6.41,6.41,0,0,1-4.86,3Z"/><path class="cls-4" d="M944.92,1569.72a5.73,5.73,0,0,1-1-.08,6.43,6.43,0,0,1-5.35-7.35l1.65-10.4a6.43,6.43,0,0,1,9-4.85l1.91.86.32-2.06a6.49,6.49,0,0,1,3.3-4.66,6.42,6.42,0,0,1,5.7-.2l9.59,4.34a6.43,6.43,0,0,1-5.3,11.72l-1.9-.86-.33,2.06a6.42,6.42,0,0,1-9,4.85l-1.92-.86-.33,2.07A6.42,6.42,0,0,1,944.92,1569.72Z"/><path class="cls-4" d="M873.64,560.44h-.3a6.44,6.44,0,0,1-6.13-6.72l.14-3.06-3,.68a6.53,6.53,0,0,1-5.55-1.34,6.43,6.43,0,0,1-2.29-5.23l.13-3.08-3,.69a6.43,6.43,0,0,1-2.84-12.55L862,527.3a6.42,6.42,0,0,1,7.84,6.56l-.14,3.07,3-.68a6.49,6.49,0,0,1,5.55,1.35,6.41,6.41,0,0,1,2.29,5.22l-.52,11.49A6.43,6.43,0,0,1,873.64,560.44Z"/><path class="cls-4" d="M72.14,1410a6.42,6.42,0,0,1-4.72-10.79l12.7-13.77-16.65-8.6a6.44,6.44,0,0,1-1.78-10.07L74.4,1353l-16.66-8.62a6.43,6.43,0,1,1,5.91-11.42l24.14,12.49a6.42,6.42,0,0,1,1.78,10.06l-12.71,13.8,16.66,8.61A6.43,6.43,0,0,1,95.29,1388l-18.42,20A6.4,6.4,0,0,1,72.14,1410Z"/><path class="cls-4" d="M1810.74,260.78a6.44,6.44,0,0,1-5.47-3l-25.5-40.9-32.7,35.44a6.34,6.34,0,0,1-5.32,2,6.44,6.44,0,0,1-4.86-3l-25.55-40.91-32.73,35.44a6.43,6.43,0,1,1-9.45-8.72l38.44-41.63a6.52,6.52,0,0,1,5.33-2,6.43,6.43,0,0,1,4.85,3l25.56,40.91,32.7-35.44a6.43,6.43,0,0,1,10.18,1l30,48a6.43,6.43,0,0,1-5.45,9.83Z"/><path class="cls-4" d="M85.89,1114.38a6.43,6.43,0,0,1-5.22-2.66L59.5,1082.49a6.43,6.43,0,0,1,3-9.79L88.34,1063l-16.23-22.39a6.43,6.43,0,0,1,2.94-9.79l33.78-12.68a6.43,6.43,0,0,1,4.52,12l-25.88,9.71,16.23,22.39a6.43,6.43,0,0,1-3,9.79l-25.89,9.74,16.23,22.41a6.43,6.43,0,0,1-1.44,9A6.36,6.36,0,0,1,85.89,1114.38Z"/><path class="cls-4" d="M1186.58,1534.6a6.43,6.43,0,0,1-5.3-2.78l-25.86-37.58a6.43,6.43,0,0,1,3.18-9.72l35.11-12.25-21.08-30.62a6.42,6.42,0,0,1,3.18-9.71l43-15a6.43,6.43,0,0,1,4.23,12.14L1188,1441.31l21.08,30.61a6.43,6.43,0,0,1-3.18,9.72l-35.11,12.25,21.08,30.64a6.42,6.42,0,0,1-5.29,10.07Z"/><path class="cls-4" d="M906,784.81a6.09,6.09,0,0,1-1.52-.19L871,776.46A6.43,6.43,0,1,1,874,764l25.34,6.17-.77-26.09a6.43,6.43,0,0,1,7.95-6.43l25.37,6.15-.76-26.1a6.43,6.43,0,0,1,6.24-6.61A6.5,6.5,0,0,1,944,717.3l1,34.52a6.43,6.43,0,0,1-7.95,6.43L911.7,752.1l.77,26.09a6.44,6.44,0,0,1-6.43,6.62Z"/><path class="cls-4" d="M1367.38,1138.42a6.44,6.44,0,0,1-2.51-.51l-12.44-5.29a6.43,6.43,0,1,1,5-11.83l4.67,2,.68-5a6.43,6.43,0,0,1,8.88-5.06l4.7,2,.68-5.06a6.43,6.43,0,1,1,12.74,1.71l-1.8,13.41a6.42,6.42,0,0,1-8.88,5.06l-4.7-2-.67,5.06a6.42,6.42,0,0,1-6.38,5.57Z"/><path class="cls-4" d="M382.67,1388.6a6.29,6.29,0,0,1-2.9-.7,6.43,6.43,0,0,1-2.83-8.64l26.5-52.19a6.42,6.42,0,0,1,10.06-1.85l37.11,33.67,22.66-44.68a6.44,6.44,0,0,1,10.06-1.85l43.3,39.34a6.43,6.43,0,0,1-8.65,9.52l-37.06-33.67-22.66,44.67a6.43,6.43,0,0,1-10.05,1.85l-37.12-33.67-22.68,44.68A6.43,6.43,0,0,1,382.67,1388.6Z"/><path class="cls-4" d="M781,1807.32a6.42,6.42,0,0,1-6.21-4.8l-6.34-24.15-21.61,12.51a6.42,6.42,0,0,1-9.44-3.92l-6.36-24.17-21.63,12.51a6.43,6.43,0,1,1-6.44-11.13l28.93-16.73a6.42,6.42,0,0,1,9.43,3.93l6.36,24.16L769.32,1763a6.43,6.43,0,0,1,9.44,3.93l8.48,32.3a6.43,6.43,0,0,1-4.59,7.85A6.22,6.22,0,0,1,781,1807.32Z"/><path class="cls-4" d="M278.24,850.86a6.58,6.58,0,0,1-2.77-.62l-41.87-20a6.43,6.43,0,1,1,5.55-11.61L273.41,835l6.71-37.39a6.44,6.44,0,0,1,9.1-4.67l34.3,16.37,6.74-37.41a6.43,6.43,0,1,1,12.65,2.28l-8.22,45.7a6.43,6.43,0,0,1-9.1,4.66l-34.3-16.36-6.72,37.39a6.4,6.4,0,0,1-6.33,5.29Z"/><path class="cls-4" d="M948.08,230.15a6.43,6.43,0,0,1-3.83-11.6l18-13.33-17.63-13.84a6.43,6.43,0,0,1,.14-10.22l18-13.36-17.64-13.86a6.43,6.43,0,0,1,8-10.11l24.26,19.07a6.42,6.42,0,0,1-.14,10.21l-18,13.36,17.64,13.84a6.43,6.43,0,0,1-.15,10.23L951.9,228.89A6.41,6.41,0,0,1,948.08,230.15Z"/><path class="cls-4" d="M1606.49,932a6.6,6.6,0,0,1-2.21-.39l-29.37-10.75a6.43,6.43,0,0,1-3-9.76l13.24-18.63-21.45-7.84a6.42,6.42,0,0,1-3-9.77l18.12-25.47a6.43,6.43,0,0,1,10.48,7.46L1576,875.49l21.45,7.84a6.43,6.43,0,0,1,3,9.76l-13.24,18.63,21.46,7.85a6.43,6.43,0,0,1-2.21,12.47Z"/><path class="cls-4" d="M1577.75,1807.26a6.18,6.18,0,0,1-1-.09l-16.27-2.67a6.43,6.43,0,0,1-4.8-9l3.36-7.33-8-1.3a6.44,6.44,0,0,1-4.81-9l6.88-15a6.43,6.43,0,0,1,11.68,5.37l-3.35,7.31,7.94,1.3a6.42,6.42,0,0,1,4.81,9l-3.36,7.33,8,1.31a6.43,6.43,0,0,1-1,12.78Z"/><path class="cls-4" d="M1612.84,719.08a6.42,6.42,0,0,1-5.27-2.72l-37.32-52.94a6.42,6.42,0,0,1,3.07-9.75l53-19.18-32.47-46a6.43,6.43,0,0,1,3.07-9.76l60.9-22a6.43,6.43,0,0,1,4.36,12.1l-53,19.11,32.47,46a6.43,6.43,0,0,1-3.07,9.75l-53,19.17L1618.08,709a6.42,6.42,0,0,1-5.24,10.13Z"/><path class="cls-4" d="M1453.29,1424.39h0a6.43,6.43,0,0,1-6.43-6.43V1401l-16.35,4.48a6.43,6.43,0,0,1-8.13-6.19v-17l-16.36,4.49a6.43,6.43,0,0,1-3.4-12.4l24.49-6.72a6.44,6.44,0,0,1,8.13,6.2v17l16.35-4.49a6.43,6.43,0,0,1,8.13,6.2V1418A6.43,6.43,0,0,1,1453.29,1424.39Z"/><path class="cls-4" d="M64.89,104.25a6.42,6.42,0,0,1-4.29-1.65l-21-18.85a6.43,6.43,0,1,1,8.6-9.57L62.92,87.4l8.85-17.7a6.44,6.44,0,0,1,10-1.91L96.56,81l8.87-17.71a6.43,6.43,0,1,1,11.49,5.76L104.28,94.31a6.42,6.42,0,0,1-10,1.9L79.5,83l-8.85,17.7a6.41,6.41,0,0,1-4.56,3.44A6,6,0,0,1,64.89,104.25Z"/><path class="cls-4" d="M1436.65,347.65a6.42,6.42,0,0,1-6.26-5l-11.26-50.05a6.44,6.44,0,0,1,1.34-5.55,6.61,6.61,0,0,1,5.22-2.29l42.83,2-9.42-41.82a6.43,6.43,0,0,1,1.35-5.54,6.58,6.58,0,0,1,5.22-2.29l51.22,2.38a6.42,6.42,0,0,1,6.12,6.72,6.49,6.49,0,0,1-6.72,6.12l-42.79-2,9.42,41.81a6.43,6.43,0,0,1-6.57,7.84l-42.83-2,9.41,41.83a6.43,6.43,0,0,1-4.86,7.69A6.85,6.85,0,0,1,1436.65,347.65Z"/><path class="cls-4" d="M1086,1233.5a6.43,6.43,0,0,1-5.89-9l12.24-27.94-30.2-4.4a6.44,6.44,0,0,1-5-8.94l12.23-28-30.22-4.42a6.43,6.43,0,0,1,1.86-12.72l38.56,5.63a6.43,6.43,0,0,1,5,8.94l-12.23,28,30.2,4.4a6.42,6.42,0,0,1,5,8.94l-15.62,35.67A6.43,6.43,0,0,1,1086,1233.5Z"/><path class="cls-4" d="M486.38,1698.6a6.41,6.41,0,0,1-4.24-1.6l-17.08-15a6.43,6.43,0,1,1,8.49-9.66l10.73,9.42,6.25-12.86a6.42,6.42,0,0,1,10-2l10.76,9.42,6.25-12.86a6.43,6.43,0,0,1,11.56,5.62l-9.93,20.45a6.45,6.45,0,0,1-10,2l-10.75-9.43L492.16,1695a6.43,6.43,0,0,1-4.51,3.5A6.83,6.83,0,0,1,486.38,1698.6Z"/><path class="cls-4" d="M338.19,1141.87a6.51,6.51,0,0,1-1.24-.12l-23.15-4.53a6.43,6.43,0,1,1,2.47-12.62l14.88,2.91L330,1112.38a6.43,6.43,0,0,1,7.64-6.79l14.91,2.91-1.13-15.14a6.43,6.43,0,1,1,12.82-1L366,1116a6.43,6.43,0,0,1-7.64,6.79l-14.9-2.91L344.6,1135a6.42,6.42,0,0,1-6.41,6.91Z"/><path class="cls-4" d="M1778,1673.13a6.43,6.43,0,0,1-2.83-12.2l9.51-4.65-7-7.94a6.44,6.44,0,0,1,2-10l9.52-4.65-7-8a6.43,6.43,0,1,1,9.66-8.5l12.57,14.28a6.42,6.42,0,0,1-2,10l-9.52,4.66,7,7.95a6.43,6.43,0,0,1-2,10l-17.08,8.34A6.32,6.32,0,0,1,1778,1673.13Z"/><path class="cls-4" d="M918.74,455.46a6.42,6.42,0,0,1-3.37-1l-50.58-31.18a6.42,6.42,0,0,1-1-10.17L901,378.34,857.63,351.6a6.42,6.42,0,0,1-1-10.18L900,300.91a6.43,6.43,0,1,1,8.77,9.41l-37.26,34.75L915,371.81A6.43,6.43,0,0,1,916,382L878.71,416.8l43.41,26.76a6.43,6.43,0,0,1-3.38,11.9Z"/><path class="cls-4" d="M1060,1656.14a6.43,6.43,0,0,1-1-12.77l23.83-4-10.15-21.93a6.42,6.42,0,0,1,4.77-9l23.85-4-10.16-22a6.43,6.43,0,0,1,11.68-5.4l13.69,29.6a6.43,6.43,0,0,1-4.78,9l-23.85,4,10.16,21.94a6.43,6.43,0,0,1-4.77,9l-32.15,5.37A6.53,6.53,0,0,1,1060,1656.14Z"/><path class="cls-4" d="M1756.89,1248.45a6.44,6.44,0,0,1-6.43-6.38l-.41-53.87-51.84,14.61a6.42,6.42,0,0,1-8.17-6.14l-.42-62.27a6.42,6.42,0,0,1,6.38-6.47h0a6.43,6.43,0,0,1,6.43,6.38l.36,53.84,51.83-14.62a6.44,6.44,0,0,1,8.18,6.14l.4,53.88,51.86-14.61a6.43,6.43,0,0,1,3.49,12.38l-60,16.89A6.52,6.52,0,0,1,1756.89,1248.45Z"/><path class="cls-4" d="M89.84,1794.64a6.45,6.45,0,0,1-5.34-2.83l-28-41.5a6.43,6.43,0,0,1,3.25-9.69l39.45-13.39-23.33-34.5a6.43,6.43,0,0,1,3.26-9.69L126.5,1667a6.44,6.44,0,0,1,4.13,12.19L91.2,1692.51,114.53,1727a6.43,6.43,0,0,1-3.25,9.69l-39.45,13.4,23.33,34.52a6.43,6.43,0,0,1-5.32,10Z"/><path class="cls-4" d="M453.35,397.83a6.43,6.43,0,0,1-5.57-9.63l20.45-35.61-39.78-10.28a6.43,6.43,0,0,1-4-9.42l20.43-35.67-39.78-10.3a6.43,6.43,0,1,1,3.22-12.45l47.94,12.42a6.44,6.44,0,0,1,4,9.42L439.83,332l39.78,10.28a6.44,6.44,0,0,1,4,9.43l-24.64,42.93A6.43,6.43,0,0,1,453.35,397.83Z"/><path class="cls-4" d="M1265.24,1303.24a6.4,6.4,0,0,1-4.18-1.55l-49-42a6.42,6.42,0,1,1,8.37-9.75l42.57,36.51,23.94-50.73a6.42,6.42,0,0,1,10-2.14l42.62,36.5,24-50.74a6.43,6.43,0,0,1,11.63,5.49l-27.57,58.36a6.43,6.43,0,0,1-10,2.14l-42.63-36.5-23.94,50.73a6.45,6.45,0,0,1-4.47,3.54A6.19,6.19,0,0,1,1265.24,1303.24Z"/><path class="cls-4" d="M676.77,1120.78a6.4,6.4,0,0,1-4.89-2.26l-37.12-43.58a6.43,6.43,0,1,1,9.79-8.34l31.65,37.16,27.47-40.37a6.41,6.41,0,0,1,10.2-.56L745.58,1100l27.49-40.39a6.43,6.43,0,0,1,10.63,7.23l-32.23,47.35a6.43,6.43,0,0,1-10.21.56l-31.7-37.17L682.09,1118a6.41,6.41,0,0,1-5,2.8Z"/><path class="cls-4" d="M1254.85,865.05a6.43,6.43,0,0,1-2.11-12.5l7.64-2.66-4.59-6.68a6.43,6.43,0,0,1,3.17-9.72l7.67-2.67-4.6-6.69a6.43,6.43,0,0,1,10.59-7.29l9.38,13.63a6.44,6.44,0,0,1-3.18,9.72l-7.66,2.67,4.6,6.68a6.44,6.44,0,0,1-3.18,9.72L1257,864.69A6.24,6.24,0,0,1,1254.85,865.05Z"/><path class="cls-4" d="M559.88,513.86a6.32,6.32,0,0,1-2.29-.43,6.42,6.42,0,0,1-3.72-8.29l4.51-11.88-12.64-1.21a6.42,6.42,0,0,1-5.4-8.68l4.52-11.9-12.66-1.21a6.43,6.43,0,1,1,1.23-12.81l21.05,2a6.43,6.43,0,0,1,5.39,8.68l-4.51,11.9L568,481.27A6.42,6.42,0,0,1,573.4,490l-7.52,19.75A6.41,6.41,0,0,1,559.88,513.86Z"/><path class="cls-4" d="M950.78,1696.93a6.43,6.43,0,0,1-5.35-2.85l-29.31-43.69-34.38,39.85a6.44,6.44,0,0,1-10.21-.62l-29.36-43.71-34.42,39.86a6.43,6.43,0,1,1-9.73-8.4l39.92-46.24a6.43,6.43,0,0,1,10.2.62l29.37,43.71,34.39-39.86a6.27,6.27,0,0,1,5.25-2.21,6.39,6.39,0,0,1,5,2.83l34,50.7a6.43,6.43,0,0,1-5.33,10Z"/><path class="cls-4" d="M541.55,260.87a6.42,6.42,0,0,1-6.29-5.17L533.11,245a6.43,6.43,0,0,1,1.47-5.5,6.54,6.54,0,0,1,5.28-2.18l2.45.17-.49-2.4a6.47,6.47,0,0,1,1.47-5.52,6.59,6.59,0,0,1,5.28-2.17l10.85.76a6.43,6.43,0,1,1-.89,12.82l-2.44-.16.49,2.4a6.44,6.44,0,0,1-6.75,7.68l-2.45-.17.48,2.41a6.43,6.43,0,0,1-5,7.57A6.18,6.18,0,0,1,541.55,260.87Z"/><path class="cls-4" d="M1221.3,108.84a6.43,6.43,0,0,1-3.82-11.61l5.33-3.93-5.21-4.11a6.43,6.43,0,0,1,.16-10.22l5.35-4-5.22-4.12a6.43,6.43,0,0,1,8-10.1l11.84,9.33a6.43,6.43,0,0,1-.16,10.22l-5.35,4,5.22,4.1a6.43,6.43,0,0,1-.17,10.23l-12.13,8.94A6.35,6.35,0,0,1,1221.3,108.84Z"/><path class="cls-4" d="M642.08,1450.31h-.2l-21.79-.67a6.43,6.43,0,0,1-6-8.31l3.92-12.79-13.36-.4a6.43,6.43,0,0,1-5.94-8.32l6.4-20.82a6.43,6.43,0,1,1,12.29,3.78l-3.93,12.76,13.36.41a6.43,6.43,0,0,1,6,8.31L628.9,1437l13.37.41a6.43,6.43,0,0,1-.19,12.86Z"/><path class="cls-4" d="M1428.93,1795a6.12,6.12,0,0,1-.74,0,6.45,6.45,0,0,1-4.79-3.1l-16-26.84-21.66,22.49a6.3,6.3,0,0,1-5.37,1.92,6.4,6.4,0,0,1-4.79-3.1l-20.25-34.08a6.43,6.43,0,0,1,11.06-6.56l15.94,26.82L1404,1750a6.29,6.29,0,0,1,5.37-1.92,6.39,6.39,0,0,1,4.78,3.1l16,26.84,21.68-22.49a6.43,6.43,0,1,1,9.25,8.92L1433.56,1793A6.45,6.45,0,0,1,1428.93,1795Z"/><path class="cls-4" d="M97,1561.61a6.37,6.37,0,0,1-2.42-.48l-50.28-20.49a6.43,6.43,0,0,1,4.85-11.91L91.61,1546l5.45-45.55a6.44,6.44,0,0,1,8.81-5.19l42.51,17.29,5.47-45.57a6.43,6.43,0,1,1,12.76,1.53l-6.47,53.94a6.42,6.42,0,0,1-8.8,5.19l-42.51-17.29-5.45,45.55a6.44,6.44,0,0,1-6.39,5.67Z"/><path class="cls-4" d="M237.49,1390.44a6.43,6.43,0,0,1-6.07-4.33L210.55,1326a6.43,6.43,0,0,1,5.65-8.52l55.12-3.69-18.11-52.18a6.43,6.43,0,0,1,5.65-8.52l63.5-4.21a6.43,6.43,0,0,1,.85,12.84l-55.08,3.64,18.11,52.17a6.44,6.44,0,0,1-5.65,8.53l-55.13,3.69,18.11,52.2a6.44,6.44,0,0,1-6.08,8.54Z"/><path class="cls-4" d="M1515.83,769.39a6.42,6.42,0,0,1-6.32-5.31l-1.5-8.46-7.76,3.68a6.42,6.42,0,0,1-9.09-4.68l-1.5-8.48-7.78,3.69a6.43,6.43,0,1,1-5.51-11.62l15.39-7.3a6.43,6.43,0,0,1,9.08,4.69l1.51,8.47,7.77-3.68a6.42,6.42,0,0,1,9.09,4.68l3,16.77a6.43,6.43,0,0,1-5.21,7.45A6.17,6.17,0,0,1,1515.83,769.39Z"/><path class="cls-4" d="M1304,1047.29a6.43,6.43,0,0,1-4.09-11.39l18.92-15.56-20-14.13a6.43,6.43,0,0,1-.38-10.22l18.93-15.58-20-14.15a6.43,6.43,0,1,1,7.42-10.5l26.91,19a6.43,6.43,0,0,1,.38,10.22l-18.93,15.59,20,14.13a6.43,6.43,0,0,1,.38,10.22l-25.43,20.91A6.44,6.44,0,0,1,1304,1047.29Z"/><path class="cls-4" d="M1072.83,1796.34a6.42,6.42,0,0,1-4.38-1.73l-39-36.26a6.43,6.43,0,0,1,8.76-9.42l32.79,30.52,20.75-39.71a6.43,6.43,0,0,1,10.08-1.73l32.84,30.52,20.77-39.72a6.43,6.43,0,1,1,11.4,6L1142.2,1782a6.45,6.45,0,0,1-10.08,1.73l-32.83-30.52-20.76,39.72a6.45,6.45,0,0,1-4.61,3.36A6.68,6.68,0,0,1,1072.83,1796.34Z"/><path class="cls-4" d="M731.91,1646.7a6.41,6.41,0,0,1-5.26-2.73l-10.83-15.43a6.43,6.43,0,0,1,3.08-9.74l9.81-3.53-6-8.52a6.43,6.43,0,0,1,3.09-9.75l17.73-6.36a6.43,6.43,0,0,1,4.34,12.11l-9.79,3.51,6,8.52a6.44,6.44,0,0,1-3.09,9.74l-9.81,3.53,6,8.53a6.43,6.43,0,0,1-5.26,10.12Z"/><path class="cls-4" d="M1027.07,494.26a6.37,6.37,0,0,1-3.71-1.18L983.07,464.6a6.43,6.43,0,0,1,7.42-10.5l33.4,23.62,13.93-38.49a6.43,6.43,0,0,1,9.75-3.06L1081,459.78l13.94-38.5a6.43,6.43,0,0,1,12.09,4.39l-16.82,46.41a6.41,6.41,0,0,1-9.75,3.06L1047,451.54,1033.11,490a6.4,6.4,0,0,1-6,4.24Z"/><path class="cls-4" d="M724.27,1346.44a6.44,6.44,0,0,1-6.43-6.56l.25-11.78L706.66,1331a6.44,6.44,0,0,1-8-6.37l.43-20.2a6.43,6.43,0,0,1,6.43-6.29h.13a6.43,6.43,0,0,1,6.3,6.56l-.25,11.77,11.41-2.88a6.43,6.43,0,0,1,8,6.37l-.25,11.78,11.43-2.88a6.43,6.43,0,1,1,3.14,12.47l-19.6,4.94A6.37,6.37,0,0,1,724.27,1346.44Z"/><path class="cls-4" d="M950.81,645.54a6.42,6.42,0,0,1-6.41-6l-1.81-25.94a6.41,6.41,0,0,1,7.67-6.75l17.24,3.44-1.23-17.53A6.44,6.44,0,0,1,974,586l25.48,5.11a6.43,6.43,0,1,1-2.53,12.61l-17.21-3.45,1.23,17.52a6.44,6.44,0,0,1-7.68,6.75L956,621.13l1.23,17.54a6.44,6.44,0,0,1-6,6.86Z"/><path class="cls-4" d="M391.57,78.51a6.44,6.44,0,0,1-6-4.16l-1.87-4.93-4.26,3.11a6.43,6.43,0,0,1-9.8-2.91l-1.88-4.94-4.27,3.11A6.43,6.43,0,0,1,355.9,57.4L367,49.32a6.45,6.45,0,0,1,9.81,2.92l1.87,4.93,4.27-3.11a6.48,6.48,0,0,1,5.62-1A6.41,6.41,0,0,1,392.73,57l4.85,12.82a6.43,6.43,0,0,1-3.73,8.29A6.51,6.51,0,0,1,391.57,78.51Z"/><path class="cls-4" d="M1609.59,354.11a6.42,6.42,0,0,1-4-1.43L1578.66,331a6.43,6.43,0,0,1,.28-10.22l21.19-15.29-20.34-16.4a6.43,6.43,0,0,1,.28-10.22l28-20.19a6.43,6.43,0,1,1,7.52,10.44l-21.19,15.26,20.33,16.39a6.44,6.44,0,0,1-.27,10.22l-21.2,15.29,20.34,16.41a6.43,6.43,0,0,1-4,11.44Z"/><path class="cls-4" d="M481.45,168.18a7.65,7.65,0,0,1-1.05-.08,6.44,6.44,0,0,1-5.3-7.39l10.24-62.19a6.42,6.42,0,0,1,9-4.79L544,116.49l8.85-53.86a6.44,6.44,0,0,1,9-4.8l57.23,26.31a6.43,6.43,0,1,1-5.37,11.68L564.15,73l-8.85,53.85a6.43,6.43,0,0,1-9,4.8l-49.62-22.76-8.87,53.87A6.43,6.43,0,0,1,481.45,168.18Z"/><path class="cls-4" d="M123.29,1259.43a6.44,6.44,0,0,1-6.18-4.67l-6.41-22.45-20,12.12a6.43,6.43,0,0,1-9.52-3.73l-6.43-22.47-20,12.13a6.43,6.43,0,0,1-6.67-11l27.18-16.5a6.43,6.43,0,0,1,9.52,3.73l6.43,22.48,20-12.13a6.42,6.42,0,0,1,9.52,3.73l8.71,30.56a6.43,6.43,0,0,1-4.42,8A6.34,6.34,0,0,1,123.29,1259.43Z"/><path class="cls-4" d="M267.09,1529.8a5.83,5.83,0,0,1-1.1-.09,6.43,6.43,0,0,1-5.25-7.42l6.3-36.57a6.42,6.42,0,0,1,9-4.74l26,12.15,4.85-28.26a6.42,6.42,0,0,1,9.06-4.73l33.59,15.73a6.43,6.43,0,0,1-5.46,11.65l-25.95-12.16-4.85,28.25a6.43,6.43,0,0,1-9.06,4.74l-26-12.15-4.86,28.26A6.44,6.44,0,0,1,267.09,1529.8Z"/><path class="cls-4" d="M1321,340.83a6.49,6.49,0,0,1-1.16-.1L1266.12,331a6.43,6.43,0,0,1-4.65-9.11l20-41.6L1236,272a6.42,6.42,0,0,1-4.64-9.11L1255,213.72a6.43,6.43,0,1,1,11.59,5.57l-20,41.56L1292,269.1a6.43,6.43,0,0,1,4.65,9.11l-20,41.6,45.39,8.27a6.43,6.43,0,0,1-1.14,12.75Z"/><path class="cls-4" d="M1290.81,572.31a6.42,6.42,0,0,1-6.24-4.91l-12-49.3a6.37,6.37,0,0,1,1.25-5.56,6.09,6.09,0,0,1,5.18-2.38l42.29,1.2-10-41.09a6.46,6.46,0,0,1,1.25-5.57,6.3,6.3,0,0,1,5.19-2.38l50.68,1.49a6.43,6.43,0,1,1-.38,12.85l-42.25-1.24,10,41.09a6.46,6.46,0,0,1-1.25,5.57,6.27,6.27,0,0,1-5.18,2.38l-42.3-1.21,10,41.11a6.42,6.42,0,0,1-4.72,7.77A6.26,6.26,0,0,1,1290.81,572.31Z"/><path class="cls-4" d="M1750.81,1532.88a7.1,7.1,0,0,1-1.22-.11,6.42,6.42,0,0,1-4.54-3.46l-17.78-35.77-29.79,26.59a6.42,6.42,0,0,1-10-1.94l-21.49-43.3a6.43,6.43,0,0,1,11.52-5.72l17.74,35.75,29.79-26.58a6.42,6.42,0,0,1,10,1.94l17.78,35.76,29.8-26.58a6.43,6.43,0,1,1,8.56,9.6l-36.1,32.19A6.4,6.4,0,0,1,1750.81,1532.88Z"/><path class="cls-4" d="M623.42,981.87a6,6,0,0,1-1-.08,6.43,6.43,0,0,1-5.33-7.37l.58-3.58-3.61.39a6.43,6.43,0,0,1-7-7.41l.58-3.6-3.63.4a6.43,6.43,0,0,1-1.39-12.79l12-1.3a6.43,6.43,0,0,1,7.05,7.41l-.58,3.6,3.62-.4a6.42,6.42,0,0,1,7,7.41l-1.91,11.91A6.42,6.42,0,0,1,623.42,981.87Z"/><path class="cls-4" d="M419,688.22a6.28,6.28,0,0,1-2.39-.47,6.43,6.43,0,0,1-3.57-8.36l.88-2.2-2.36-.27a6.42,6.42,0,0,1-5.23-8.78l.89-2.22-2.37-.27a6.43,6.43,0,1,1,1.47-12.77l10.73,1.23a6.44,6.44,0,0,1,5.24,8.78l-.89,2.21,2.36.27a6.43,6.43,0,0,1,5.24,8.79l-4,10A6.44,6.44,0,0,1,419,688.22Z"/><path class="cls-4" d="M640.28,423.46a6.23,6.23,0,0,1-.74,0,6.42,6.42,0,0,1-5.65-7.12l2.61-22.73-22.62,3.5a6.42,6.42,0,0,1-7.37-7.08l2.6-22.75-22.64,3.5a6.43,6.43,0,0,1-2-12.71l31-4.79a6.44,6.44,0,0,1,7.37,7.08l-2.6,22.76,22.62-3.51a6.44,6.44,0,0,1,7.38,7.09l-3.58,31.11A6.42,6.42,0,0,1,640.28,423.46Z"/><path class="cls-4" d="M215.28,100.19l-.58,0a6.44,6.44,0,0,1-5.84-7L211,69a6.43,6.43,0,0,1,8.65-5.46l14.84,5.52,1.4-15.77a6.42,6.42,0,0,1,8.65-5.45l22.72,8.47a6.42,6.42,0,1,1-4.49,12L248,62.86l-1.4,15.76a6.43,6.43,0,0,1-8.64,5.46l-14.85-5.52-1.41,15.77A6.42,6.42,0,0,1,215.28,100.19Z"/><path class="cls-4" d="M1409.07,1659a6.37,6.37,0,0,1-3.61-1.12l-44.72-30.49a6.43,6.43,0,0,1-.54-10.2l34.79-29.63-37.75-25.73a6.43,6.43,0,0,1-.55-10.21l41.21-35a6.43,6.43,0,0,1,8.33,9.79L1371.44,1556l37.75,25.72a6.42,6.42,0,0,1,.55,10.2L1375,1621.52l37.75,25.74a6.43,6.43,0,0,1-3.63,11.74Z"/><path class="cls-4" d="M504.74,771.23a6.43,6.43,0,0,1-5.87-3.81L496.43,762l-4.6,3.79a6.42,6.42,0,0,1-9.95-2.33L479.43,758l-4.61,3.79a6.43,6.43,0,1,1-8.17-9.93l11.12-9.15a6.43,6.43,0,0,1,10,2.34l2.44,5.45,4.62-3.79a6.42,6.42,0,0,1,10,2.34l5.88,13.13a6.44,6.44,0,0,1-5.87,9.06Z"/><path class="cls-4" d="M420.46,538.26h-.2l-30.19-.94a6.43,6.43,0,1,1,.4-12.86l21.77.69L407.13,504a6.43,6.43,0,0,1,6.45-7.93l21.8.67-5.11-21.2a6.43,6.43,0,1,1,12.5-3l7.08,29.39a6.44,6.44,0,0,1-1.26,5.56,6.19,6.19,0,0,1-5.19,2.37l-21.79-.67,5.11,21.19a6.45,6.45,0,0,1-6.26,7.94Z"/><path class="cls-4" d="M55.76,416.38a6.43,6.43,0,0,1-2.9-12.17l8.55-4.32L55,392.78a6.42,6.42,0,0,1,1.86-10l8.57-4.33L59,371.28a6.43,6.43,0,0,1,9.54-8.63L80.6,376a6.43,6.43,0,0,1-1.87,10.05l-8.56,4.33,6.44,7.12a6.43,6.43,0,0,1-1.87,10.05l-16.09,8.12A6.36,6.36,0,0,1,55.76,416.38Z"/><path class="cls-4" d="M1800.71,1112a6.55,6.55,0,0,1-1.69-.23,6.43,6.43,0,0,1-4.51-7.9l1.17-4.31h-4.47a6.43,6.43,0,0,1-6.2-8.12l1.17-4.32h-4.48a6.43,6.43,0,0,1,0-12.86h12.9a6.43,6.43,0,0,1,6.21,8.12l-1.18,4.32h4.48a6.43,6.43,0,0,1,6.2,8.13l-3.4,12.44A6.43,6.43,0,0,1,1800.71,1112Z"/><path class="cls-4" d="M1709.5,942.07a6.43,6.43,0,0,1-6.42-6.07l-.66-11.87-11.26,3.77a6.42,6.42,0,0,1-8.46-5.75l-1.11-20.26a6.42,6.42,0,0,1,6.07-6.77,6.49,6.49,0,0,1,6.77,6.07l.65,11.84,11.26-3.77a6.43,6.43,0,0,1,8.46,5.74l.66,11.87,11.27-3.77a6.43,6.43,0,0,1,4.07,12.2l-19.26,6.43A6.24,6.24,0,0,1,1709.5,942.07Z"/><path class="cls-4" d="M1086.91,1373.76a6.43,6.43,0,0,1-4-1.41l-30.18-24.17a6.43,6.43,0,1,1,8-10l23.59,18.89,12-27.77a6.43,6.43,0,0,1,9.92-2.47l23.63,18.9,12-27.78a6.43,6.43,0,1,1,11.81,5.09l-15.33,35.52a6.43,6.43,0,0,1-9.92,2.47l-23.63-18.89-12,27.77a6.43,6.43,0,0,1-5.91,3.88Z"/><path class="cls-4" d="M1411.12,643.26a6.34,6.34,0,0,1-2.27-.42l-56.19-21.2a6.43,6.43,0,1,1,4.54-12l48.3,18.23,4.78-51.43a6.43,6.43,0,0,1,8.66-5.42l48.36,18.2,4.79-51.44a6.43,6.43,0,0,1,12.81,1.19l-5.58,59.83a6.44,6.44,0,0,1-8.67,5.42L1422.3,586l-4.78,51.42a6.43,6.43,0,0,1-6.4,5.84Z"/><path class="cls-4" d="M1253.94,1804.45a6.51,6.51,0,0,1-.88-.06l-17.65-2.43a6.43,6.43,0,1,1,1.75-12.74l9.3,1.28-1.23-9.31a6.43,6.43,0,0,1,7.24-7.21l9.32,1.27-1.23-9.32a6.43,6.43,0,0,1,12.75-1.68l2.33,17.68a6.43,6.43,0,0,1-7.25,7.21l-9.31-1.28,1.23,9.32a6.43,6.43,0,0,1-6.37,7.27Z"/></pattern></defs><g id="Ebene_2" data-name="Ebene 2"><g id="Ebene_2-2" data-name="Ebene 2"><circle class="cls-5" cx="1398.02" cy="1250.58" r="878.24"/><circle class="cls-6" cx="1398.02" cy="1256.41" r="878.24"/><path class="cls-7" d="M1059.31,1258.67c-.06,1.75-.14,3.5-.22,5.25q-10-3.81-20.09-7.51Q1049.16,1257.51,1059.31,1258.67Z"/><path class="cls-7" d="M1059.31,1258.67c-.06,1.75-.14,3.5-.22,5.25q-10-3.81-20.09-7.51Q1049.16,1257.51,1059.31,1258.67Z"/><path class="cls-7" d="M2207,1107.58l-10.9,1.86q-13.44,2.3-26.73,5.23a552,552,0,0,0-189.49,80.66c-1.95,1.3-3.88,2.62-5.81,4l-22.29,15.32h0c-69.37,65.5-138.07,190.7-151.82,285.1s-12.71,190.73-30.57,284.44c-36.36,190.69-157.46,361.07-319.59,466.9q-25.77,1.3-51.74,1.3a1001,1001,0,0,1-844.51-462.7q-24.76-38.72-45.79-79.35-37.26-27.81-72.18-57.72-3.37-2.89-6.73-5.8c-120.6-104.73-219-228.53-288.79-373.67C48,1081.75,13.26,885.69,0,696.32A1198.26,1198.26,0,0,0,119.35,849.07c-6.89-134.52,6-264.62,27.42-389.55,23.36,66.06,53.83,132,90.39,196,11.84-160.87,52.38-310.54,103.39-451,12.68,77.76,34.22,157,63.69,234.74,52.15-143.33,126-270.55,207-387.32-7.81,81.13-6.87,166.2,2.7,251.76C728.12,192.25,858.06,95.41,986.57,0c-77.21,153.11-234.8,271.9-252.91,441.62-.2,1.78-.37,3.57-.53,5.37q-.68,7.61-1,15.18a309.23,309.23,0,0,0,1.06,39c6.76,76,40,149.56,80.54,215.28,50.05,81.23,110.12,124.67,155,208.87,32.85,61.65,59.69,122.39,75.47,186.84q2.22,9,4.12,18a524.52,524.52,0,0,1,11,128.5q-10.15-1.17-20.31-2.26,10.05,3.71,20.09,7.51c-3.73,79.45-25.21,167.48-71,270.19l33.62-41A1000.77,1000.77,0,0,0,1146,1299.62q6.56-13.33,12.7-26.87t12-27.51q6.48-15.45,12.44-31.14a1002.24,1002.24,0,0,0,39.4-129.44l34.16-147.31v0h0c57.61-122.19,181.91-206.75,326-206.75s226.59,57.72,326,206.75a.67.67,0,0,1,.06.12s65,73.15,135,108.38c62.74,31.59,131.1,52.56,154.68,59.37C2203.91,1106.77,2207,1107.58,2207,1107.58Z"/><path class="cls-7" d="M1059.31,1258.67c-.06,1.75-.14,3.5-.22,5.25q-10-3.81-20.09-7.51Q1049.16,1257.51,1059.31,1258.67Z"/><path class="cls-8" d="M1797.69,1826.35c7.12-24.69,30.88-42.15,56.08-47.23-8.83-19.18-17.78-38.82-19.78-59.84s4.24-44,21-56.92c26.45-20.35,66.27-7,90.42,16-6.41-27,1.85-58.63,24.86-74.08s60.1-7.7,70.18,18.12c-12.34-32.78,24.28-69.1,59-64.42s59.79,38.73,64.63,73.41c12.45-29.78,50.71-45.69,80.61-33.51s46.17,50.28,34.28,80.3c8.28-9.89,25.86-5.32,32.72,5.6s5.89,24.92,3.63,37.62c-17.59,98.93-101,179.26-197.62,206.74-64.76,18.41-134.12,15-198.41-3.7C1877.36,1912.3,1780.1,1887.4,1797.69,1826.35Z"/><polygon class="cls-7" points="1826.72 1885.89 1894.53 2146.67 2055.43 2036.07 2206.97 1885.89 1826.72 1885.89"/><path class="cls-7" d="M1059.31,1258.67c-.06,1.75-.14,3.5-.22,5.25q-10-3.81-20.09-7.51Q1049.16,1257.51,1059.31,1258.67Z"/><path class="cls-7" d="M1449.76,2251.05q-23.27,15.18-47.62,28.56-11,.24-22.12.24c-424.92,0-789.4-258.74-944.48-627.27q34.89,29.91,72.18,57.72,21,40.6,45.79,79.35a1009,1009,0,0,0,356,335.71,997,997,0,0,0,488.54,127Q1424,2252.35,1449.76,2251.05Z"/><path class="cls-9" d="M2261.52,1698.67c13,1.24,23.63,12.92,25.67,25.83s-3.48,26.27-12.53,35.69-21.28,15.29-33.84,18.89c-8.55,2.46-17.61,4-26.34,2.26-16.7-3.25-30-19.33-30-36.34s13.25-33.11,30-36.36c10.84-2.11,23,1.23,30,9.78s7.47,22.29-.11,30.33c-4.47,4.73-11.74,7.1-17.79,4.68s-9.72-10.2-6.73-16c2.89-5.6,10.06-7.32,16.36-7.42"/><path class="cls-10" d="M2362.52,843.12a1050.37,1050.37,0,0,0-557-557c-129.07-54.59-266.16-82.27-407.46-82.27-147.15,0-289.45,29.93-422.95,89a1047.46,1047.46,0,0,0-182.9,104.07q-30,21.31-58.51,44.77c-.2,1.78-.37,3.57-.53,5.37q-.68,7.61-1,15.18a309.23,309.23,0,0,0,1.06,39,1002.57,1002.57,0,0,1,260-167.24C1121,277.45,1257.18,248.81,1398,248.81c135.25,0,266.44,26.48,389.93,78.71a1005.44,1005.44,0,0,1,533.13,533.13c52.23,123.49,78.71,254.68,78.71,389.93s-26.48,266.44-78.71,389.93a1000.87,1000.87,0,0,1-871.32,610.54q-25.77,1.3-51.74,1.3a1001,1001,0,0,1-844.51-462.7q-24.76-38.72-45.79-79.35-37.26-27.81-72.18-57.72-3.37-2.89-6.73-5.8A1043.17,1043.17,0,0,0,515.6,1813.9a1054.16,1054.16,0,0,0,371.9,350.73A1042.17,1042.17,0,0,0,1398,2297.35c141.3,0,278.39-27.68,407.46-82.27a1050.37,1050.37,0,0,0,557-557c54.59-129.07,82.27-266.16,82.27-407.46S2417.11,972.19,2362.52,843.12Z"/><polygon class="cls-11" points="1735.46 762.59 1260.04 924.32 1203.45 148.1 1735.46 762.59"/><path class="cls-7" d="M374.59,1292.4l.39.69-.34.57C374.62,1293.24,374.61,1292.82,374.59,1292.4Z"/><path class="cls-9" d="M2061.88,1647c-10.21-5.36-16.07-21.21-14.71-35.72s8.93-27.15,18.43-34.47,20.73-9.83,31.7-9.81c7.48,0,15.14,1.21,21.79,5.74,12.73,8.66,19.68,30,15.72,48.34s-18.39,31.47-32.63,29.79c-9.24-1.09-18.28-8.46-21.94-19.81s-.84-26.27,7.15-32.55c4.71-3.71,11.13-4,15.45.47s5.47,14,1.71,19.27c-3.63,5.12-9.82,4.75-14.93,2.91"/><rect class="cls-3" x="2083.94" y="1412.54" width="30.13" height="355.01"/><path class="cls-8" d="M1979.76,1756.11c-1.85-20.48,8.57-41.31,25.33-53.23,17.94-12.76,47.37-12.92,58.19,6.25,2.91-21.61,15.52-42.37,34.94-52.29s45.38-7.14,60.35,8.7c4.31,4.55,7.61,9.93,10.88,15.27l24.22,39.52c3.62,5.91,7.3,12,8.84,18.71,3.51,15.31-4.51,30.82-13.76,43.51-8.37,11.48-18.13,22.19-30.12,29.81-24.56,15.63-55.33,16.71-84.44,17.31C2035.2,1830.47,1983.68,1799.51,1979.76,1756.11Z"/><path class="cls-7" d="M2045.09,1353.22c3.53-14.08,10.56-27,16.53-40.22a285,285,0,0,0,24.1-93,268.69,268.69,0,0,0,22.21,116.79c14.07,32.22,66.83,125.51-3.54,116.47C2059.87,1447.56,2034.67,1394.71,2045.09,1353.22Z"/><circle cx="1751.78" cy="974.22" r="37.8"/><circle class="cls-12" cx="1641.02" cy="1084.95" r="37.94"/><circle class="cls-2" cx="1758.79" cy="955.69" r="5.34"/><g class="cls-13"><path class="cls-14" d="M2207,1107.58l-10.9,1.86q-13.44,2.3-26.73,5.23-11.93.6-24.17.59c-63.5,0-131.72-11.89-183.64-33.2a3.5,3.5,0,0,1,2.66-6.48c66.11,27.14,159.12,38.77,234.22,29.61C2203.91,1106.77,2207,1107.58,2207,1107.58Z"/></g><path class="cls-9" d="M2090.47,1731.94c-12.16-4.8-19.13-19-17.51-31.94s10.62-24.27,21.94-30.82,24.67-8.79,37.74-8.77c8.9,0,18,1.08,25.93,5.13,15.16,7.75,23.44,26.87,18.72,43.22s-21.9,28.14-38.85,26.64c-11-1-21.76-7.56-26.11-17.71s-1-23.49,8.51-29.11c5.61-3.32,13.25-3.57,18.39.42s6.51,12.5,2,17.24c-4.33,4.57-11.7,4.24-17.78,2.59"/><path class="cls-9" d="M2188.11,1684.6c-12.15-5.36-19.12-21.22-17.51-35.72s10.63-27.15,21.94-34.47,24.68-9.83,37.75-9.81c8.89,0,18,1.21,25.93,5.74,15.15,8.66,23.43,30.05,18.72,48.34s-21.9,31.47-38.85,29.79a31.64,31.64,0,0,1-26.11-19.81c-4.36-11.35-1-26.27,8.5-32.56,5.61-3.7,13.25-4,18.39.48s6.52,14,2,19.27c-4.32,5.12-11.69,4.75-17.77,2.91"/><path class="cls-9" d="M1965.29,1689c-10.21-5.36-16.07-21.21-14.71-35.71s8.93-27.15,18.43-34.47,20.73-9.83,31.7-9.81c7.48,0,15.14,1.2,21.79,5.73,12.72,8.67,19.68,30.06,15.72,48.35s-18.4,31.47-32.63,29.79c-9.24-1.09-18.28-8.46-21.94-19.81s-.84-26.27,7.15-32.56c4.71-3.7,11.13-4,15.45.48s5.47,14,1.71,19.27c-3.63,5.12-9.82,4.74-14.93,2.9"/><path class="cls-9" d="M1905,1752.91c-9.86,6-26.46,2.83-38.19-5.81s-18.66-21.64-20-33.56,2.26-22.83,7.94-32.23c3.86-6.39,8.83-12.34,16.14-15.7,14-6.44,35.91-1.37,49.54,11.45s17.47,32,8.69,43.32c-5.7,7.36-16.67,11.3-28.28,8.59s-22.94-12.83-24.21-22.92c-.75-5.94,2.32-11.59,8.38-13s14.79,2.52,17.39,8.47c2.51,5.76-1,10.87-5.21,14.29"/><path class="cls-9" d="M1867.67,1882.81c-9.86,6-26.46,2.83-38.19-5.81s-18.66-21.65-20-33.56,2.26-22.83,7.94-32.23c3.86-6.4,8.83-12.34,16.14-15.71,14-6.43,35.91-1.37,49.54,11.46s17.47,32,8.69,43.32c-5.7,7.35-16.67,11.3-28.28,8.58s-22.94-12.83-24.21-22.91c-.75-6,2.32-11.6,8.37-13s14.8,2.52,17.4,8.47c2.51,5.75-1,10.86-5.21,14.29"/><path class="cls-9" d="M2005.87,1845.53c-14.12,8.57-37.89,4-54.69-8.33s-26.72-31-28.68-48.06,3.24-32.69,11.36-46.15c5.53-9.16,12.66-17.67,23.13-22.49,20-9.22,51.41-2,70.93,16.4s25,45.81,12.45,62c-8.16,10.53-23.87,16.18-40.49,12.29s-32.86-18.37-34.68-32.81c-1.07-8.52,3.32-16.61,12-18.6s21.19,3.61,24.91,12.13c3.59,8.23-1.44,15.55-7.47,20.46"/><path class="cls-9" d="M2196.9,1836.17c-2.54,16.33-21.31,31.59-41.6,36.47s-40.92.46-55.24-9-22.91-23.54-28-38.43c-3.44-10.13-5.36-21.06-2.3-32.17,5.85-21.26,31.62-40.59,58.24-43.69s51.16,10.38,55.47,30.45c2.8,13-3,28.68-16.69,38.89s-35.22,13.3-47.43,5.38c-7.21-4.67-10.57-13.23-6.5-21.16s16.41-13.88,25.32-11.23c8.62,2.55,11,11.12,10.84,18.89"/></g></g></svg>